<svg width="1440" height="75" viewBox="0 0 1440 75" fill="none" xmlns="http://www.w3.org/2000/svg">
<rect width="1440" height="75" fill="#D9D9D9"/>
<rect x="1170" width="140" height="75" fill="#D9D9D9"/>
<rect x="1030" width="140" height="75" fill="#D9D9D9"/>
<rect x="891" width="140" height="75" fill="#D9D9D9"/>
<rect x="791" width="100" height="75" fill="#7A7A7A"/>
<path d="M184.46 39V37.5426H184.844C185.389 37.5426 185.813 37.3679 186.116 37.0185C186.418 36.669 186.636 36.1044 186.768 35.3246C186.904 34.5447 186.996 33.5114 187.043 32.2244L187.273 25.9091H195.25V39H193.665V27.3153H188.781L188.577 32.5312C188.526 33.9034 188.4 35.071 188.2 36.0341C187.999 36.9972 187.648 37.7322 187.145 38.2393C186.642 38.7464 185.909 39 184.946 39H184.46ZM202.201 39.2045C201.315 39.2045 200.537 38.9936 199.868 38.5717C199.203 38.1499 198.684 37.5597 198.309 36.8011C197.938 36.0426 197.752 35.1562 197.752 34.142C197.752 33.1193 197.938 32.2266 198.309 31.4638C198.684 30.701 199.203 30.1087 199.868 29.6868C200.537 29.2649 201.315 29.054 202.201 29.054C203.088 29.054 203.863 29.2649 204.528 29.6868C205.197 30.1087 205.717 30.701 206.088 31.4638C206.463 32.2266 206.65 33.1193 206.65 34.142C206.65 35.1562 206.463 36.0426 206.088 36.8011C205.717 37.5597 205.197 38.1499 204.528 38.5717C203.863 38.9936 203.088 39.2045 202.201 39.2045ZM202.201 37.8494C202.875 37.8494 203.429 37.6768 203.863 37.3317C204.298 36.9865 204.62 36.5327 204.828 35.9702C205.037 35.4077 205.142 34.7983 205.142 34.142C205.142 33.4858 205.037 32.8743 204.828 32.3075C204.62 31.7408 204.298 31.2827 203.863 30.9332C203.429 30.5838 202.875 30.4091 202.201 30.4091C201.528 30.4091 200.974 30.5838 200.539 30.9332C200.105 31.2827 199.783 31.7408 199.574 32.3075C199.365 32.8743 199.261 33.4858 199.261 34.142C199.261 34.7983 199.365 35.4077 199.574 35.9702C199.783 36.5327 200.105 36.9865 200.539 37.3317C200.974 37.6768 201.528 37.8494 202.201 37.8494ZM215.013 29.1818V30.5881H210.461V39H208.953V29.1818H215.013ZM220.694 39.2045C219.807 39.2045 219.029 38.9936 218.36 38.5717C217.696 38.1499 217.176 37.5597 216.801 36.8011C216.43 36.0426 216.245 35.1562 216.245 34.142C216.245 33.1193 216.43 32.2266 216.801 31.4638C217.176 30.701 217.696 30.1087 218.36 29.6868C219.029 29.2649 219.807 29.054 220.694 29.054C221.58 29.054 222.355 29.2649 223.02 29.6868C223.689 30.1087 224.209 30.701 224.58 31.4638C224.955 32.2266 225.142 33.1193 225.142 34.142C225.142 35.1562 224.955 36.0426 224.58 36.8011C224.209 37.5597 223.689 38.1499 223.02 38.5717C222.355 38.9936 221.58 39.2045 220.694 39.2045ZM220.694 37.8494C221.367 37.8494 221.921 37.6768 222.355 37.3317C222.79 36.9865 223.112 36.5327 223.321 35.9702C223.529 35.4077 223.634 34.7983 223.634 34.142C223.634 33.4858 223.529 32.8743 223.321 32.3075C223.112 31.7408 222.79 31.2827 222.355 30.9332C221.921 30.5838 221.367 30.4091 220.694 30.4091C220.02 30.4091 219.466 30.5838 219.032 30.9332C218.597 31.2827 218.275 31.7408 218.066 32.3075C217.858 32.8743 217.753 33.4858 217.753 34.142C217.753 34.7983 217.858 35.4077 218.066 35.9702C218.275 36.5327 218.597 36.9865 219.032 37.3317C219.466 37.6768 220.02 37.8494 220.694 37.8494Z" fill="black"/>
<path d="M814.337 31.9091V33.6094H808.15V45H806.175V31.9091H814.337ZM815.636 45L815.63 43.3445H815.982C816.254 43.3445 816.482 43.2869 816.665 43.1719C816.853 43.0526 817.006 42.8523 817.126 42.571C817.245 42.2898 817.337 41.902 817.401 41.4077C817.464 40.9091 817.511 40.2827 817.541 39.5284L817.714 35.1818H824.566V45H822.693V36.831H819.484L819.331 40.1676C819.293 40.9773 819.21 41.6847 819.082 42.2898C818.958 42.8949 818.777 43.3999 818.538 43.8047C818.3 44.2053 817.993 44.5057 817.618 44.706C817.243 44.902 816.787 45 816.25 45H815.636ZM829.972 45.2173C829.35 45.2173 828.787 45.1023 828.285 44.8722C827.782 44.6378 827.383 44.299 827.089 43.8558C826.8 43.4126 826.655 42.8693 826.655 42.2259C826.655 41.6719 826.761 41.2159 826.974 40.858C827.187 40.5 827.475 40.2166 827.837 40.0078C828.199 39.799 828.604 39.6413 829.052 39.5348C829.499 39.4283 829.955 39.3473 830.42 39.2919C831.008 39.2237 831.485 39.1683 831.851 39.1257C832.218 39.0788 832.484 39.0043 832.65 38.902C832.817 38.7997 832.9 38.6335 832.9 38.4034V38.3587C832.9 37.8004 832.742 37.3679 832.427 37.0611C832.116 36.7543 831.651 36.6009 831.033 36.6009C830.39 36.6009 829.883 36.7436 829.512 37.0291C829.145 37.3104 828.892 37.6236 828.751 37.9688L826.955 37.5597C827.168 36.9631 827.479 36.4815 827.888 36.1151C828.302 35.7443 828.777 35.4759 829.314 35.3097C829.851 35.1392 830.415 35.054 831.008 35.054C831.4 35.054 831.815 35.1009 832.254 35.1946C832.697 35.2841 833.111 35.4503 833.494 35.6932C833.882 35.9361 834.199 36.2834 834.447 36.7351C834.694 37.1825 834.817 37.7642 834.817 38.4801V45H832.951V43.6577H832.874C832.751 43.9048 832.565 44.1477 832.318 44.3864C832.071 44.625 831.753 44.8232 831.366 44.9808C830.978 45.1385 830.513 45.2173 829.972 45.2173ZM830.388 43.6832C830.916 43.6832 831.368 43.5788 831.743 43.37C832.122 43.1612 832.41 42.8885 832.606 42.5518C832.806 42.2109 832.906 41.8466 832.906 41.4588V40.1932C832.838 40.2614 832.706 40.3253 832.51 40.3849C832.318 40.4403 832.099 40.4893 831.851 40.532C831.604 40.5703 831.363 40.6065 831.129 40.6406C830.895 40.6705 830.699 40.696 830.541 40.7173C830.17 40.7642 829.831 40.843 829.525 40.9538C829.222 41.0646 828.979 41.2244 828.796 41.4332C828.617 41.6378 828.528 41.9105 828.528 42.2514C828.528 42.7244 828.702 43.0824 829.052 43.3253C829.401 43.5639 829.846 43.6832 830.388 43.6832ZM837.363 45V35.1818H841.435C842.543 35.1818 843.42 35.4183 844.068 35.8913C844.716 36.3601 845.04 36.9972 845.04 37.8026C845.04 38.3778 844.857 38.8338 844.49 39.1705C844.124 39.5071 843.638 39.733 843.033 39.848C843.472 39.8991 843.874 40.0312 844.241 40.2443C844.607 40.4531 844.901 40.7344 845.123 41.0881C845.349 41.4418 845.462 41.8636 845.462 42.3537C845.462 42.8736 845.327 43.3338 845.059 43.7344C844.79 44.1307 844.401 44.4418 843.889 44.6676C843.382 44.8892 842.771 45 842.055 45H837.363ZM839.159 43.402H842.055C842.528 43.402 842.898 43.2891 843.167 43.0632C843.435 42.8374 843.57 42.5305 843.57 42.1428C843.57 41.6868 843.435 41.3288 843.167 41.0689C842.898 40.8047 842.528 40.6726 842.055 40.6726H839.159V43.402ZM839.159 39.2727H841.454C841.812 39.2727 842.119 39.2216 842.374 39.1193C842.634 39.017 842.832 38.8722 842.969 38.6847C843.109 38.4929 843.18 38.267 843.18 38.0071C843.18 37.6278 843.024 37.3317 842.713 37.1186C842.402 36.9055 841.976 36.799 841.435 36.799H839.159V39.2727ZM854.212 39.2663V40.9219H848.894V39.2663H854.212ZM849.431 35.1818V45H847.558V35.1818H849.431ZM855.548 35.1818V45H853.682V35.1818H855.548ZM860.962 45.2173C860.34 45.2173 859.778 45.1023 859.275 44.8722C858.772 44.6378 858.374 44.299 858.08 43.8558C857.79 43.4126 857.645 42.8693 857.645 42.2259C857.645 41.6719 857.751 41.2159 857.964 40.858C858.178 40.5 858.465 40.2166 858.827 40.0078C859.19 39.799 859.594 39.6413 860.042 39.5348C860.489 39.4283 860.945 39.3473 861.41 39.2919C861.998 39.2237 862.475 39.1683 862.842 39.1257C863.208 39.0788 863.474 39.0043 863.641 38.902C863.807 38.7997 863.89 38.6335 863.89 38.4034V38.3587C863.89 37.8004 863.732 37.3679 863.417 37.0611C863.106 36.7543 862.641 36.6009 862.023 36.6009C861.38 36.6009 860.873 36.7436 860.502 37.0291C860.136 37.3104 859.882 37.6236 859.741 37.9688L857.945 37.5597C858.158 36.9631 858.469 36.4815 858.879 36.1151C859.292 35.7443 859.767 35.4759 860.304 35.3097C860.841 35.1392 861.406 35.054 861.998 35.054C862.39 35.054 862.805 35.1009 863.244 35.1946C863.688 35.2841 864.101 35.4503 864.484 35.6932C864.872 35.9361 865.19 36.2834 865.437 36.7351C865.684 37.1825 865.808 37.7642 865.808 38.4801V45H863.941V43.6577H863.864C863.741 43.9048 863.555 44.1477 863.308 44.3864C863.061 44.625 862.744 44.8232 862.356 44.9808C861.968 45.1385 861.504 45.2173 860.962 45.2173ZM861.378 43.6832C861.906 43.6832 862.358 43.5788 862.733 43.37C863.112 43.1612 863.4 42.8885 863.596 42.5518C863.796 42.2109 863.896 41.8466 863.896 41.4588V40.1932C863.828 40.2614 863.696 40.3253 863.5 40.3849C863.308 40.4403 863.089 40.4893 862.842 40.532C862.594 40.5703 862.354 40.6065 862.119 40.6406C861.885 40.6705 861.689 40.696 861.531 40.7173C861.161 40.7642 860.822 40.843 860.515 40.9538C860.212 41.0646 859.969 41.2244 859.786 41.4332C859.607 41.6378 859.518 41.9105 859.518 42.2514C859.518 42.7244 859.692 43.0824 860.042 43.3253C860.391 43.5639 860.837 43.6832 861.378 43.6832ZM874.208 45V36.8118H871.856C871.298 36.8118 870.863 36.9418 870.552 37.2017C870.241 37.4616 870.085 37.8026 870.085 38.2244C870.085 38.642 870.228 38.9787 870.514 39.2344C870.803 39.4858 871.208 39.6115 871.728 39.6115H874.764V41.1584H871.728C871.004 41.1584 870.377 41.0391 869.849 40.8004C869.325 40.5575 868.92 40.2145 868.634 39.7713C868.353 39.3281 868.213 38.804 868.213 38.1989C868.213 37.581 868.357 37.0483 868.647 36.6009C868.941 36.1491 869.361 35.7997 869.906 35.5526C870.456 35.3054 871.106 35.1818 871.856 35.1818H876.004V45H874.208ZM867.765 45L870.533 40.0398H872.489L869.721 45H867.765Z" fill="black"/>
<path d="M916.603 39.4545C916.603 40.8523 916.347 42.054 915.836 43.0597C915.324 44.0611 914.623 44.8324 913.733 45.3736C912.846 45.9105 911.838 46.179 910.709 46.179C909.576 46.179 908.564 45.9105 907.673 45.3736C906.787 44.8324 906.088 44.0589 905.576 43.0533C905.065 42.0476 904.809 40.848 904.809 39.4545C904.809 38.0568 905.065 36.8572 905.576 35.8558C906.088 34.8501 906.787 34.0788 907.673 33.5419C908.564 33.0007 909.576 32.7301 910.709 32.7301C911.838 32.7301 912.846 33.0007 913.733 33.5419C914.623 34.0788 915.324 34.8501 915.836 35.8558C916.347 36.8572 916.603 38.0568 916.603 39.4545ZM914.647 39.4545C914.647 38.3892 914.474 37.4922 914.129 36.7635C913.788 36.0305 913.319 35.4766 912.723 35.1016C912.13 34.7223 911.459 34.5327 910.709 34.5327C909.955 34.5327 909.282 34.7223 908.689 35.1016C908.097 35.4766 907.628 36.0305 907.283 36.7635C906.942 37.4922 906.772 38.3892 906.772 39.4545C906.772 40.5199 906.942 41.419 907.283 42.152C907.628 42.8807 908.097 43.4347 908.689 43.8139C909.282 44.1889 909.955 44.3764 910.709 44.3764C911.459 44.3764 912.13 44.1889 912.723 43.8139C913.319 43.4347 913.788 42.8807 914.129 42.152C914.474 41.419 914.647 40.5199 914.647 39.4545ZM923.829 46V32.9091H928.495C929.513 32.9091 930.357 33.0945 931.026 33.4652C931.695 33.8359 932.196 34.343 932.528 34.9865C932.861 35.6257 933.027 36.3459 933.027 37.147C933.027 37.9524 932.859 38.6768 932.522 39.3203C932.19 39.9595 931.687 40.4666 931.013 40.8416C930.344 41.2124 929.503 41.3977 928.489 41.3977H925.28V39.723H928.31C928.953 39.723 929.475 39.6122 929.876 39.3906C930.276 39.1648 930.57 38.858 930.758 38.4702C930.945 38.0824 931.039 37.6413 931.039 37.147C931.039 36.6527 930.945 36.2138 930.758 35.8303C930.57 35.4467 930.274 35.1463 929.869 34.929C929.469 34.7116 928.94 34.603 928.284 34.603H925.804V46H923.829ZM937.958 46.2173C937.336 46.2173 936.774 46.1023 936.271 45.8722C935.768 45.6378 935.37 45.299 935.076 44.8558C934.786 44.4126 934.641 43.8693 934.641 43.2259C934.641 42.6719 934.748 42.2159 934.961 41.858C935.174 41.5 935.461 41.2166 935.824 41.0078C936.186 40.799 936.591 40.6413 937.038 40.5348C937.485 40.4283 937.941 40.3473 938.406 40.2919C938.994 40.2237 939.471 40.1683 939.838 40.1257C940.204 40.0788 940.471 40.0043 940.637 39.902C940.803 39.7997 940.886 39.6335 940.886 39.4034V39.3587C940.886 38.8004 940.728 38.3679 940.413 38.0611C940.102 37.7543 939.637 37.6009 939.02 37.6009C938.376 37.6009 937.869 37.7436 937.498 38.0291C937.132 38.3104 936.878 38.6236 936.738 38.9688L934.941 38.5597C935.154 37.9631 935.466 37.4815 935.875 37.1151C936.288 36.7443 936.763 36.4759 937.3 36.3097C937.837 36.1392 938.402 36.054 938.994 36.054C939.386 36.054 939.801 36.1009 940.24 36.1946C940.684 36.2841 941.097 36.4503 941.48 36.6932C941.868 36.9361 942.186 37.2834 942.433 37.7351C942.68 38.1825 942.804 38.7642 942.804 39.4801V46H940.937V44.6577H940.86C940.737 44.9048 940.551 45.1477 940.304 45.3864C940.057 45.625 939.74 45.8232 939.352 45.9808C938.964 46.1385 938.5 46.2173 937.958 46.2173ZM938.374 44.6832C938.902 44.6832 939.354 44.5788 939.729 44.37C940.108 44.1612 940.396 43.8885 940.592 43.5518C940.792 43.2109 940.892 42.8466 940.892 42.4588V41.1932C940.824 41.2614 940.692 41.3253 940.496 41.3849C940.304 41.4403 940.085 41.4893 939.838 41.532C939.591 41.5703 939.35 41.6065 939.115 41.6406C938.881 41.6705 938.685 41.696 938.527 41.7173C938.157 41.7642 937.818 41.843 937.511 41.9538C937.208 42.0646 936.966 42.2244 936.782 42.4332C936.603 42.6378 936.514 42.9105 936.514 43.2514C936.514 43.7244 936.689 44.0824 937.038 44.3253C937.387 44.5639 937.833 44.6832 938.374 44.6832ZM947.222 43.3217L951.55 36.1818H953.608V46H951.735V38.8537L947.427 46H945.349V36.1818H947.222V43.3217ZM950.731 32.858H952.304C952.304 33.5781 952.048 34.1641 951.537 34.6158C951.03 35.0632 950.344 35.2869 949.479 35.2869C948.618 35.2869 947.934 35.0632 947.427 34.6158C946.92 34.1641 946.666 33.5781 946.666 32.858H948.232C948.232 33.1776 948.326 33.4609 948.513 33.7081C948.701 33.951 949.023 34.0724 949.479 34.0724C949.926 34.0724 950.246 33.951 950.437 33.7081C950.633 33.4652 950.731 33.1818 950.731 32.858ZM963.752 32.5256L964.545 33.7337C964.251 34.0021 963.916 34.1939 963.541 34.3089C963.17 34.4197 962.742 34.4901 962.256 34.5199C961.77 34.5455 961.214 34.5689 960.588 34.5902C959.881 34.6115 959.299 34.7649 958.843 35.0504C958.387 35.3317 958.035 35.7493 957.788 36.3033C957.545 36.853 957.388 37.5433 957.315 38.3743H957.437C957.756 37.7649 958.199 37.3089 958.766 37.0064C959.337 36.7038 959.979 36.5526 960.69 36.5526C961.483 36.5526 962.188 36.7337 962.806 37.0959C963.424 37.4581 963.91 37.9886 964.263 38.6875C964.621 39.3821 964.8 40.2322 964.8 41.2379C964.8 42.2564 964.613 43.1364 964.238 43.8778C963.867 44.6193 963.343 45.1925 962.665 45.5973C961.992 45.9979 961.197 46.1982 960.281 46.1982C959.365 46.1982 958.566 45.9915 957.884 45.5781C957.206 45.1605 956.68 44.5426 956.305 43.7244C955.934 42.9062 955.749 41.8963 955.749 40.6946V39.723C955.749 37.4773 956.15 35.7876 956.951 34.6541C957.752 33.5206 958.949 32.9389 960.543 32.9091C961.059 32.8963 961.519 32.8942 961.924 32.9027C962.329 32.907 962.682 32.8878 962.985 32.8452C963.292 32.7983 963.547 32.6918 963.752 32.5256ZM960.287 44.5938C960.82 44.5938 961.278 44.4595 961.662 44.1911C962.05 43.9183 962.348 43.5327 962.557 43.0341C962.765 42.5355 962.87 41.9474 962.87 41.2699C962.87 40.6051 962.765 40.0405 962.557 39.576C962.348 39.1115 962.05 38.7578 961.662 38.5149C961.274 38.2678 960.809 38.1442 960.268 38.1442C959.868 38.1442 959.51 38.2145 959.194 38.3551C958.879 38.4915 958.608 38.6939 958.383 38.9624C958.161 39.2308 957.988 39.5589 957.865 39.9467C957.746 40.3303 957.682 40.7713 957.673 41.2699C957.673 42.2841 957.905 43.0916 958.37 43.6925C958.839 44.2933 959.478 44.5938 960.287 44.5938ZM971.167 46.1982C970.199 46.1982 969.366 45.9915 968.667 45.5781C967.973 45.1605 967.436 44.5746 967.057 43.8203C966.682 43.0618 966.494 42.1733 966.494 41.1548C966.494 40.1491 966.682 39.2628 967.057 38.4957C967.436 37.7287 967.964 37.13 968.642 36.6996C969.324 36.2692 970.121 36.054 971.032 36.054C971.586 36.054 972.123 36.1456 972.643 36.3288C973.163 36.5121 973.63 36.7997 974.043 37.1918C974.456 37.5838 974.782 38.093 975.021 38.7195C975.26 39.3416 975.379 40.098 975.379 40.9886V41.6662H967.574V40.2344H973.506C973.506 39.7315 973.404 39.2862 973.199 38.8984C972.995 38.5064 972.707 38.1974 972.336 37.9716C971.97 37.7457 971.54 37.6328 971.045 37.6328C970.508 37.6328 970.04 37.7649 969.639 38.0291C969.243 38.2891 968.936 38.63 968.719 39.0518C968.506 39.4695 968.399 39.9233 968.399 40.4134V41.532C968.399 42.1882 968.514 42.7464 968.744 43.2067C968.979 43.6669 969.305 44.0185 969.722 44.2614C970.14 44.5 970.628 44.6193 971.186 44.6193C971.548 44.6193 971.878 44.5682 972.177 44.4659C972.475 44.3594 972.733 44.2017 972.95 43.9929C973.167 43.7841 973.334 43.5263 973.449 43.2195L975.258 43.5455C975.113 44.0781 974.853 44.5447 974.478 44.9453C974.107 45.3416 973.64 45.6506 973.078 45.8722C972.52 46.0895 971.883 46.1982 971.167 46.1982ZM977.5 46V36.1818H979.411V40.2983H980.331L983.572 36.1818H985.937L982.134 40.9567L985.982 46H983.61L980.651 42.0753H979.411V46H977.5ZM990.324 46.2173C989.702 46.2173 989.139 46.1023 988.636 45.8722C988.133 45.6378 987.735 45.299 987.441 44.8558C987.151 44.4126 987.006 43.8693 987.006 43.2259C987.006 42.6719 987.113 42.2159 987.326 41.858C987.539 41.5 987.827 41.2166 988.189 41.0078C988.551 40.799 988.956 40.6413 989.403 40.5348C989.851 40.4283 990.307 40.3473 990.771 40.2919C991.359 40.2237 991.836 40.1683 992.203 40.1257C992.569 40.0788 992.836 40.0043 993.002 39.902C993.168 39.7997 993.251 39.6335 993.251 39.4034V39.3587C993.251 38.8004 993.094 38.3679 992.778 38.0611C992.467 37.7543 992.003 37.6009 991.385 37.6009C990.741 37.6009 990.234 37.7436 989.863 38.0291C989.497 38.3104 989.243 38.6236 989.103 38.9688L987.307 38.5597C987.52 37.9631 987.831 37.4815 988.24 37.1151C988.653 36.7443 989.128 36.4759 989.665 36.3097C990.202 36.1392 990.767 36.054 991.359 36.054C991.751 36.054 992.167 36.1009 992.606 36.1946C993.049 36.2841 993.462 36.4503 993.846 36.6932C994.233 36.9361 994.551 37.2834 994.798 37.7351C995.045 38.1825 995.169 38.7642 995.169 39.4801V46H993.302V44.6577H993.226C993.102 44.9048 992.917 45.1477 992.67 45.3864C992.422 45.625 992.105 45.8232 991.717 45.9808C991.329 46.1385 990.865 46.2173 990.324 46.2173ZM990.739 44.6832C991.268 44.6832 991.719 44.5788 992.094 44.37C992.474 44.1612 992.761 43.8885 992.957 43.5518C993.157 43.2109 993.258 42.8466 993.258 42.4588V41.1932C993.189 41.2614 993.057 41.3253 992.861 41.3849C992.67 41.4403 992.45 41.4893 992.203 41.532C991.956 41.5703 991.715 41.6065 991.481 41.6406C991.246 41.6705 991.05 41.696 990.893 41.7173C990.522 41.7642 990.183 41.843 989.876 41.9538C989.574 42.0646 989.331 42.2244 989.148 42.4332C988.969 42.6378 988.879 42.9105 988.879 43.2514C988.879 43.7244 989.054 44.0824 989.403 44.3253C989.753 44.5639 990.198 44.6832 990.739 44.6832ZM1001.85 46.1982C1000.9 46.1982 1000.08 45.983 999.396 45.5526C998.714 45.1179 998.19 44.5192 997.823 43.7564C997.457 42.9936 997.273 42.12 997.273 41.1357C997.273 40.1385 997.461 39.2585 997.836 38.4957C998.211 37.7287 998.739 37.13 999.421 36.6996C1000.1 36.2692 1000.91 36.054 1001.83 36.054C1002.58 36.054 1003.24 36.1925 1003.83 36.4695C1004.41 36.7422 1004.88 37.1257 1005.24 37.62C1005.6 38.1143 1005.82 38.6918 1005.88 39.3523H1004.02C1003.92 38.892 1003.69 38.4957 1003.32 38.1634C1002.96 37.831 1002.47 37.6648 1001.86 37.6648C1001.33 37.6648 1000.86 37.8054 1000.46 38.0866C1000.07 38.3636 999.758 38.7599 999.536 39.2756C999.315 39.7869 999.204 40.392 999.204 41.0909C999.204 41.8068 999.313 42.4247 999.53 42.9446C999.747 43.4645 1000.05 43.8672 1000.45 44.1527C1000.85 44.4382 1001.32 44.581 1001.86 44.581C1002.23 44.581 1002.55 44.5149 1002.85 44.3828C1003.15 44.2464 1003.39 44.0526 1003.6 43.8011C1003.8 43.5497 1003.94 43.2472 1004.02 42.8935H1005.88C1005.82 43.5284 1005.61 44.0952 1005.26 44.5938C1004.92 45.0923 1004.46 45.4844 1003.88 45.7699C1003.3 46.0554 1002.63 46.1982 1001.85 46.1982ZM1012.16 46.1982C1011.19 46.1982 1010.36 45.9915 1009.66 45.5781C1008.97 45.1605 1008.43 44.5746 1008.05 43.8203C1007.67 43.0618 1007.49 42.1733 1007.49 41.1548C1007.49 40.1491 1007.67 39.2628 1008.05 38.4957C1008.43 37.7287 1008.96 37.13 1009.63 36.6996C1010.32 36.2692 1011.11 36.054 1012.02 36.054C1012.58 36.054 1013.12 36.1456 1013.64 36.3288C1014.16 36.5121 1014.62 36.7997 1015.04 37.1918C1015.45 37.5838 1015.77 38.093 1016.01 38.7195C1016.25 39.3416 1016.37 40.098 1016.37 40.9886V41.6662H1008.57V40.2344H1014.5C1014.5 39.7315 1014.4 39.2862 1014.19 38.8984C1013.99 38.5064 1013.7 38.1974 1013.33 37.9716C1012.96 37.7457 1012.53 37.6328 1012.04 37.6328C1011.5 37.6328 1011.03 37.7649 1010.63 38.0291C1010.23 38.2891 1009.93 38.63 1009.71 39.0518C1009.5 39.4695 1009.39 39.9233 1009.39 40.4134V41.532C1009.39 42.1882 1009.51 42.7464 1009.74 43.2067C1009.97 43.6669 1010.3 44.0185 1010.71 44.2614C1011.13 44.5 1011.62 44.6193 1012.18 44.6193C1012.54 44.6193 1012.87 44.5682 1013.17 44.4659C1013.47 44.3594 1013.72 44.2017 1013.94 43.9929C1014.16 43.7841 1014.33 43.5263 1014.44 43.2195L1016.25 43.5455C1016.1 44.0781 1015.84 44.5447 1015.47 44.9453C1015.1 45.3416 1014.63 45.6506 1014.07 45.8722C1013.51 46.0895 1012.87 46.1982 1012.16 46.1982Z" fill="black"/>
<path d="M1207.05 39.4545C1207.05 40.8523 1206.8 42.054 1206.29 43.0597C1205.78 44.0611 1205.07 44.8324 1204.18 45.3736C1203.3 45.9105 1202.29 46.179 1201.16 46.179C1200.03 46.179 1199.01 45.9105 1198.12 45.3736C1197.24 44.8324 1196.54 44.0589 1196.03 43.0533C1195.52 42.0476 1195.26 40.848 1195.26 39.4545C1195.26 38.0568 1195.52 36.8572 1196.03 35.8558C1196.54 34.8501 1197.24 34.0788 1198.12 33.5419C1199.01 33.0007 1200.03 32.7301 1201.16 32.7301C1202.29 32.7301 1203.3 33.0007 1204.18 33.5419C1205.07 34.0788 1205.78 34.8501 1206.29 35.8558C1206.8 36.8572 1207.05 38.0568 1207.05 39.4545ZM1205.1 39.4545C1205.1 38.3892 1204.93 37.4922 1204.58 36.7635C1204.24 36.0305 1203.77 35.4766 1203.17 35.1016C1202.58 34.7223 1201.91 34.5327 1201.16 34.5327C1200.41 34.5327 1199.73 34.7223 1199.14 35.1016C1198.55 35.4766 1198.08 36.0305 1197.73 36.7635C1197.39 37.4922 1197.22 38.3892 1197.22 39.4545C1197.22 40.5199 1197.39 41.419 1197.73 42.152C1198.08 42.8807 1198.55 43.4347 1199.14 43.8139C1199.73 44.1889 1200.41 44.3764 1201.16 44.3764C1201.91 44.3764 1202.58 44.1889 1203.17 43.8139C1203.77 43.4347 1204.24 42.8807 1204.58 42.152C1204.93 41.419 1205.1 40.5199 1205.1 39.4545ZM1214.13 46V36.1818H1222.14V46H1220.26V37.831H1215.99V46H1214.13ZM1224.69 49.6818V36.1818H1226.56V37.7734H1226.72C1226.83 37.5689 1226.99 37.3324 1227.2 37.0639C1227.41 36.7955 1227.7 36.5611 1228.07 36.3608C1228.44 36.1562 1228.93 36.054 1229.54 36.054C1230.33 36.054 1231.04 36.2543 1231.66 36.6548C1232.28 37.0554 1232.77 37.6328 1233.12 38.3871C1233.48 39.1413 1233.66 40.049 1233.66 41.1101C1233.66 42.1712 1233.48 43.081 1233.13 43.8395C1232.77 44.5937 1232.29 45.1754 1231.67 45.5845C1231.05 45.9893 1230.35 46.1918 1229.56 46.1918C1228.96 46.1918 1228.47 46.0916 1228.09 45.8913C1227.72 45.6911 1227.42 45.4567 1227.21 45.1882C1227 44.9197 1226.83 44.6811 1226.72 44.4723H1226.6V49.6818H1224.69ZM1226.56 41.0909C1226.56 41.7812 1226.66 42.3864 1226.86 42.9062C1227.06 43.4261 1227.35 43.8331 1227.73 44.1271C1228.11 44.4169 1228.58 44.5618 1229.13 44.5618C1229.7 44.5618 1230.18 44.4105 1230.56 44.108C1230.94 43.8011 1231.23 43.3857 1231.43 42.8615C1231.63 42.3374 1231.73 41.7472 1231.73 41.0909C1231.73 40.4432 1231.63 39.8615 1231.43 39.3459C1231.24 38.8303 1230.95 38.4233 1230.57 38.125C1230.18 37.8267 1229.7 37.6776 1229.13 37.6776C1228.57 37.6776 1228.1 37.8203 1227.72 38.1058C1227.34 38.3913 1227.05 38.7898 1226.86 39.3011C1226.66 39.8125 1226.56 40.4091 1226.56 41.0909ZM1239.94 46.1982C1239.02 46.1982 1238.21 45.9872 1237.53 45.5653C1236.84 45.1435 1236.31 44.5533 1235.93 43.7947C1235.55 43.0362 1235.36 42.1499 1235.36 41.1357C1235.36 40.1172 1235.55 39.2266 1235.93 38.4638C1236.31 37.701 1236.84 37.1087 1237.53 36.6868C1238.21 36.2649 1239.02 36.054 1239.94 36.054C1240.86 36.054 1241.66 36.2649 1242.35 36.6868C1243.03 37.1087 1243.56 37.701 1243.94 38.4638C1244.32 39.2266 1244.51 40.1172 1244.51 41.1357C1244.51 42.1499 1244.32 43.0362 1243.94 43.7947C1243.56 44.5533 1243.03 45.1435 1242.35 45.5653C1241.66 45.9872 1240.86 46.1982 1239.94 46.1982ZM1239.94 44.5938C1240.54 44.5938 1241.03 44.4361 1241.43 44.1207C1241.82 43.8054 1242.11 43.3857 1242.29 42.8615C1242.49 42.3374 1242.58 41.7599 1242.58 41.1293C1242.58 40.5028 1242.49 39.9276 1242.29 39.4034C1242.11 38.875 1241.82 38.451 1241.43 38.1314C1241.03 37.8118 1240.54 37.652 1239.94 37.652C1239.34 37.652 1238.84 37.8118 1238.45 38.1314C1238.05 38.451 1237.76 38.875 1237.57 39.4034C1237.38 39.9276 1237.29 40.5028 1237.29 41.1293C1237.29 41.7599 1237.38 42.3374 1237.57 42.8615C1237.76 43.3857 1238.05 43.8054 1238.45 44.1207C1238.84 44.4361 1239.34 44.5938 1239.94 44.5938ZM1250.88 46.1982C1249.91 46.1982 1249.08 45.9915 1248.38 45.5781C1247.68 45.1605 1247.15 44.5746 1246.77 43.8203C1246.39 43.0618 1246.21 42.1733 1246.21 41.1548C1246.21 40.1491 1246.39 39.2628 1246.77 38.4957C1247.15 37.7287 1247.68 37.13 1248.35 36.6996C1249.03 36.2692 1249.83 36.054 1250.74 36.054C1251.3 36.054 1251.83 36.1456 1252.35 36.3288C1252.87 36.5121 1253.34 36.7997 1253.75 37.1918C1254.17 37.5838 1254.49 38.093 1254.73 38.7195C1254.97 39.3416 1255.09 40.098 1255.09 40.9886V41.6662H1247.29V40.2344H1253.22C1253.22 39.7315 1253.11 39.2862 1252.91 38.8984C1252.71 38.5064 1252.42 38.1974 1252.05 37.9716C1251.68 37.7457 1251.25 37.6328 1250.76 37.6328C1250.22 37.6328 1249.75 37.7649 1249.35 38.0291C1248.95 38.2891 1248.65 38.63 1248.43 39.0518C1248.22 39.4695 1248.11 39.9233 1248.11 40.4134V41.532C1248.11 42.1882 1248.22 42.7464 1248.46 43.2067C1248.69 43.6669 1249.02 44.0185 1249.43 44.2614C1249.85 44.5 1250.34 44.6193 1250.9 44.6193C1251.26 44.6193 1251.59 44.5682 1251.89 44.4659C1252.19 44.3594 1252.44 44.2017 1252.66 43.9929C1252.88 43.7841 1253.04 43.5263 1253.16 43.2195L1254.97 43.5455C1254.82 44.0781 1254.56 44.5447 1254.19 44.9453C1253.82 45.3416 1253.35 45.6506 1252.79 45.8722C1252.23 46.0895 1251.59 46.1982 1250.88 46.1982ZM1257.21 46V36.1818H1259.12V40.2983H1260.04L1263.28 36.1818H1265.65L1261.84 40.9567L1265.69 46H1263.32L1260.36 42.0753H1259.12V46H1257.21ZM1266.63 37.831V36.1818H1274.91V37.831H1271.71V46H1269.84V37.831H1266.63ZM1280.71 46.1982C1279.74 46.1982 1278.91 45.9915 1278.21 45.5781C1277.51 45.1605 1276.98 44.5746 1276.6 43.8203C1276.22 43.0618 1276.04 42.1733 1276.04 41.1548C1276.04 40.1491 1276.22 39.2628 1276.6 38.4957C1276.98 37.7287 1277.51 37.13 1278.18 36.6996C1278.86 36.2692 1279.66 36.054 1280.57 36.054C1281.13 36.054 1281.66 36.1456 1282.18 36.3288C1282.7 36.5121 1283.17 36.7997 1283.58 37.1918C1284 37.5838 1284.32 38.093 1284.56 38.7195C1284.8 39.3416 1284.92 40.098 1284.92 40.9886V41.6662H1277.12V40.2344H1283.05C1283.05 39.7315 1282.94 39.2862 1282.74 38.8984C1282.54 38.5064 1282.25 38.1974 1281.88 37.9716C1281.51 37.7457 1281.08 37.6328 1280.59 37.6328C1280.05 37.6328 1279.58 37.7649 1279.18 38.0291C1278.78 38.2891 1278.48 38.63 1278.26 39.0518C1278.05 39.4695 1277.94 39.9233 1277.94 40.4134V41.532C1277.94 42.1882 1278.06 42.7464 1278.29 43.2067C1278.52 43.6669 1278.85 44.0185 1279.26 44.2614C1279.68 44.5 1280.17 44.6193 1280.73 44.6193C1281.09 44.6193 1281.42 44.5682 1281.72 44.4659C1282.02 44.3594 1282.27 44.2017 1282.49 43.9929C1282.71 43.7841 1282.87 43.5263 1282.99 43.2195L1284.8 43.5455C1284.65 44.0781 1284.39 44.5447 1284.02 44.9453C1283.65 45.3416 1283.18 45.6506 1282.62 45.8722C1282.06 46.0895 1281.42 46.1982 1280.71 46.1982Z" fill="black"/>
<path d="M1061.37 46L1056.98 40.1321H1055.58V46H1053.61V32.9091H1055.58V38.4382H1056.23L1061.18 32.9091H1063.59L1058.35 38.7706L1063.78 46H1061.37ZM1068.87 46.1982C1067.95 46.1982 1067.15 45.9872 1066.46 45.5653C1065.78 45.1435 1065.25 44.5533 1064.87 43.7947C1064.49 43.0362 1064.3 42.1499 1064.3 41.1357C1064.3 40.1172 1064.49 39.2266 1064.87 38.4638C1065.25 37.701 1065.78 37.1087 1066.46 36.6868C1067.15 36.2649 1067.95 36.054 1068.87 36.054C1069.8 36.054 1070.6 36.2649 1071.28 36.6868C1071.97 37.1087 1072.5 37.701 1072.88 38.4638C1073.26 39.2266 1073.45 40.1172 1073.45 41.1357C1073.45 42.1499 1073.26 43.0362 1072.88 43.7947C1072.5 44.5533 1071.97 45.1435 1071.28 45.5653C1070.6 45.9872 1069.8 46.1982 1068.87 46.1982ZM1068.88 44.5938C1069.48 44.5938 1069.97 44.4361 1070.36 44.1207C1070.76 43.8054 1071.05 43.3857 1071.23 42.8615C1071.42 42.3374 1071.52 41.7599 1071.52 41.1293C1071.52 40.5028 1071.42 39.9276 1071.23 39.4034C1071.05 38.875 1070.76 38.451 1070.36 38.1314C1069.97 37.8118 1069.48 37.652 1068.88 37.652C1068.28 37.652 1067.78 37.8118 1067.39 38.1314C1066.99 38.451 1066.7 38.875 1066.51 39.4034C1066.32 39.9276 1066.23 40.5028 1066.23 41.1293C1066.23 41.7599 1066.32 42.3374 1066.51 42.8615C1066.7 43.3857 1066.99 43.8054 1067.39 44.1207C1067.78 44.4361 1068.28 44.5938 1068.88 44.5938ZM1074.81 46L1074.8 44.3445H1075.16C1075.43 44.3445 1075.66 44.2869 1075.84 44.1719C1076.03 44.0526 1076.18 43.8523 1076.3 43.571C1076.42 43.2898 1076.51 42.902 1076.58 42.4077C1076.64 41.9091 1076.69 41.2827 1076.72 40.5284L1076.89 36.1818H1083.74V46H1081.87V37.831H1078.66L1078.51 41.1676C1078.47 41.9773 1078.38 42.6847 1078.26 43.2898C1078.13 43.8949 1077.95 44.3999 1077.71 44.8047C1077.47 45.2053 1077.17 45.5057 1076.79 45.706C1076.42 45.902 1075.96 46 1075.42 46H1074.81ZM1085.52 46L1085.51 44.3445H1085.86C1086.13 44.3445 1086.36 44.2869 1086.55 44.1719C1086.73 44.0526 1086.89 43.8523 1087.01 43.571C1087.12 43.2898 1087.22 42.902 1087.28 42.4077C1087.34 41.9091 1087.39 41.2827 1087.42 40.5284L1087.59 36.1818H1094.45V46H1092.57V37.831H1089.36L1089.21 41.1676C1089.17 41.9773 1089.09 42.6847 1088.96 43.2898C1088.84 43.8949 1088.66 44.3999 1088.42 44.8047C1088.18 45.2053 1087.87 45.5057 1087.5 45.706C1087.12 45.902 1086.67 46 1086.13 46H1085.52ZM1101.23 46.1982C1100.26 46.1982 1099.43 45.9915 1098.73 45.5781C1098.03 45.1605 1097.5 44.5746 1097.12 43.8203C1096.74 43.0618 1096.55 42.1733 1096.55 41.1548C1096.55 40.1491 1096.74 39.2628 1097.12 38.4957C1097.5 37.7287 1098.02 37.13 1098.7 36.6996C1099.38 36.2692 1100.18 36.054 1101.09 36.054C1101.65 36.054 1102.18 36.1456 1102.7 36.3288C1103.22 36.5121 1103.69 36.7997 1104.1 37.1918C1104.52 37.5838 1104.84 38.093 1105.08 38.7195C1105.32 39.3416 1105.44 40.098 1105.44 40.9886V41.6662H1097.63V40.2344H1103.57C1103.57 39.7315 1103.46 39.2862 1103.26 38.8984C1103.05 38.5064 1102.77 38.1974 1102.4 37.9716C1102.03 37.7457 1101.6 37.6328 1101.1 37.6328C1100.57 37.6328 1100.1 37.7649 1099.7 38.0291C1099.3 38.2891 1099 38.63 1098.78 39.0518C1098.57 39.4695 1098.46 39.9233 1098.46 40.4134V41.532C1098.46 42.1882 1098.57 42.7464 1098.8 43.2067C1099.04 43.6669 1099.36 44.0185 1099.78 44.2614C1100.2 44.5 1100.69 44.6193 1101.25 44.6193C1101.61 44.6193 1101.94 44.5682 1102.24 44.4659C1102.53 44.3594 1102.79 44.2017 1103.01 43.9929C1103.23 43.7841 1103.39 43.5263 1103.51 43.2195L1105.32 43.5455C1105.17 44.0781 1104.91 44.5447 1104.54 44.9453C1104.17 45.3416 1103.7 45.6506 1103.14 45.8722C1102.58 46.0895 1101.94 46.1982 1101.23 46.1982ZM1107.56 46V36.1818H1109.47V40.2983H1110.39L1113.63 36.1818H1116L1112.19 40.9567L1116.04 46H1113.67L1110.71 42.0753H1109.47V46H1107.56ZM1125.54 36.1818V44.4339H1126.97V49.1641H1125.09V46H1117.53V36.1818H1119.4V44.3509H1123.67V36.1818H1125.54ZM1130.97 43.3217L1135.29 36.1818H1137.35V46H1135.48V38.8537L1131.17 46H1129.09V36.1818H1130.97V43.3217ZM1145.78 46V37.8118H1143.42C1142.87 37.8118 1142.43 37.9418 1142.12 38.2017C1141.81 38.4616 1141.65 38.8026 1141.65 39.2244C1141.65 39.642 1141.8 39.9787 1142.08 40.2344C1142.37 40.4858 1142.78 40.6115 1143.3 40.6115H1146.33V42.1584H1143.3C1142.57 42.1584 1141.94 42.0391 1141.42 41.8004C1140.89 41.5575 1140.49 41.2145 1140.2 40.7713C1139.92 40.3281 1139.78 39.804 1139.78 39.1989C1139.78 38.581 1139.92 38.0483 1140.21 37.6009C1140.51 37.1491 1140.93 36.7997 1141.47 36.5526C1142.02 36.3054 1142.67 36.1818 1143.42 36.1818H1147.57V46H1145.78ZM1139.33 46L1142.1 41.0398H1144.06L1141.29 46H1139.33Z" fill="black"/>
</svg>
