<svg width="551" height="365" viewBox="0 0 551 365" fill="none" xmlns="http://www.w3.org/2000/svg">
<path fill-rule="evenodd" clip-rule="evenodd" d="M489.29 130.627C548.136 142.407 568.669 180.198 532.446 219.69C513.631 240.202 499.755 233.415 487.837 227.586C476.81 222.193 467.459 217.619 457.424 236.248C451.43 247.376 447.412 257.115 444.007 265.368C435.551 285.864 430.878 297.191 409.116 297.838C245.336 396.869 104.978 364.346 44.9444 332.579C-15.0892 300.812 -20.6814 254.753 64.9925 177.867C83.8602 160.934 103.19 141.195 122.804 121.165C192.254 50.242 265.273 -24.3255 333.993 9.17318C378.54 30.8881 402.696 58.6721 423.293 82.363C443.444 105.541 460.189 124.801 489.29 130.627ZM253.5 120C189.105 100.8 163.002 184.667 158 229C181.62 363.972 272.132 260.908 315.475 211.555C323.512 202.403 329.927 195.098 333.993 191.5C359.987 168.5 333.993 144 253.5 120Z" fill="#6D8399"/>
</svg>
