<?xml version="1.0" encoding="utf-8"?>
<!-- Generator: Adobe Illustrator 26.1.0, SVG Export Plug-In . SVG Version: 6.00 Build 0)  -->
<svg version="1.1" id="Слой_1" xmlns="http://www.w3.org/2000/svg" xmlns:xlink="http://www.w3.org/1999/xlink" x="0px" y="0px"
	 viewBox="0 0 207.48 90.08" style="enable-background:new 0 0 207.48 90.08;" xml:space="preserve">
<style type="text/css">
	.st0{fill:#FFFFFF;}
	.st1{enable-background:new    ;}
</style>
<g>
	<path class="st0" d="M70.22,50.81V39.01c4.04-0.78,7.04-4.37,7.04-8.6c0-4.82-3.91-8.73-8.73-8.73c-2.41,0-4.56,0.98-6.19,2.54
		l-11.01-6.91c0.07-0.33,0.07-0.72,0.07-1.04c0-4.82-3.91-8.73-8.73-8.73s-8.73,3.91-8.73,8.73S37.83,25,42.65,25
		c3.26,0,6.13-1.76,7.62-4.43l10.23,6.39c-0.46,1.04-0.72,2.22-0.72,3.39c0,4.24,3.06,7.82,7.04,8.6v11.79
		c-4.04,0.78-7.04,4.37-7.04,8.6c0,4.82,3.91,8.73,8.73,8.73s8.73-3.91,8.73-8.73C77.32,55.17,74.26,51.59,70.22,50.81"/>
	<path class="st0" d="M51.39,44.94c0-4.82-3.91-8.73-8.73-8.73s-8.73,3.91-8.73,8.73c0,4.24,3.06,7.82,7.04,8.6v11.66
		c-2.15,0.39-4.04,1.63-5.28,3.32l-9.84-6.13c0.33-0.91,0.52-1.89,0.52-2.93c0-4.24-3.06-7.82-7.04-8.6V39.08
		c4.04-0.78,7.04-4.37,7.04-8.6c0-4.82-3.91-8.73-8.73-8.73S8.9,25.66,8.9,30.48c0,4.24,3.06,7.82,7.04,8.6v11.79
		c-4.04,0.78-7.04,4.37-7.04,8.6c0,4.82,3.91,8.73,8.73,8.73c2.61,0,4.89-1.11,6.52-2.93l10.1,6.32c-0.2,0.72-0.26,1.43-0.26,2.22
		c0,4.82,3.91,8.73,8.73,8.73s8.73-3.91,8.73-8.73c0-4.24-3.06-7.82-7.04-8.6V53.54C48.39,52.76,51.39,49.18,51.39,44.94"/>
	<path class="st0" d="M97.71,22.27c0.78,0,1.43,0.2,2.09,0.52c0.65,0.33,1.11,0.78,1.43,1.37l-0.98,0.72
		c-0.59-0.91-1.43-1.43-2.48-1.43c-0.85,0-1.56,0.26-2.09,0.85c-0.59,0.59-0.85,1.3-0.85,2.15s0.26,1.56,0.85,2.15
		s1.24,0.85,2.09,0.85c1.04,0,1.89-0.46,2.48-1.43l0.98,0.72c-0.33,0.59-0.85,1.04-1.43,1.37c-0.59,0.33-1.3,0.52-2.09,0.52
		c-1.17,0-2.22-0.39-3.06-1.24c-0.85-0.78-1.24-1.82-1.24-3c0-1.17,0.39-2.22,1.24-3C95.5,22.66,96.54,22.27,97.71,22.27
		L97.71,22.27z"/>
	<polygon class="st0" points="113.74,22.27 113.74,30.54 112.44,30.54 112.44,24.94 107.36,30.67 106.9,30.67 106.9,22.4 
		108.21,22.4 108.21,28 113.29,22.27 	"/>
	<path class="st0" d="M124.95,23.57h-3.13v2.15h1.11c0.78,0,1.43,0.2,1.95,0.65c0.46,0.46,0.72,1.04,0.72,1.76
		c0,0.72-0.26,1.3-0.72,1.76s-1.11,0.65-1.95,0.65h-2.48V22.4h4.43L124.95,23.57z M121.82,26.89v2.54h1.04
		c0.46,0,0.85-0.13,1.04-0.33c0.26-0.2,0.39-0.52,0.39-0.91c0-0.39-0.13-0.72-0.39-0.91c-0.26-0.26-0.59-0.33-1.04-0.33
		L121.82,26.89z"/>
	<polygon class="st0" points="138.5,22.27 138.5,30.54 137.14,30.54 137.14,24.94 132.05,30.67 131.6,30.67 131.6,22.4 132.97,22.4 
		132.97,28 138.05,22.27 	"/>
	<path class="st0" d="M146.72,22.33c0.85,0,1.5,0.26,2.02,0.72c0.52,0.46,0.78,1.04,0.78,1.82c0,0.78-0.26,1.37-0.78,1.82
		c-0.52,0.46-1.17,0.72-2.02,0.72h-0.98v3.13h-1.3V22.4L146.72,22.33L146.72,22.33z M145.8,23.51v2.67h0.91
		c0.46,0,0.85-0.13,1.04-0.39c0.26-0.26,0.39-0.59,0.39-0.98c0-0.39-0.13-0.72-0.39-0.98c-0.26-0.26-0.59-0.39-1.04-0.39
		L145.8,23.51z"/>
	<path class="st0" d="M158.31,22.27c0.78,0,1.43,0.2,2.09,0.52c0.65,0.33,1.11,0.78,1.43,1.37l-0.98,0.72
		c-0.59-0.91-1.43-1.43-2.48-1.43c-0.85,0-1.56,0.26-2.09,0.85c-0.59,0.59-0.85,1.3-0.85,2.15s0.26,1.56,0.85,2.15
		s1.24,0.85,2.09,0.85c1.04,0,1.89-0.46,2.48-1.43l0.98,0.72c-0.33,0.59-0.85,1.04-1.43,1.37c-0.65,0.33-1.3,0.52-2.09,0.52
		c-1.17,0-2.22-0.39-3.06-1.24c-0.85-0.78-1.24-1.82-1.24-3c0-1.17,0.39-2.22,1.24-3C156.16,22.66,157.14,22.27,158.31,22.27
		L158.31,22.27z"/>
	<polygon class="st0" points="186.27,22.27 186.27,30.54 184.96,30.54 184.96,24.94 179.88,30.67 179.43,30.67 179.43,22.4 
		180.73,22.4 180.73,28 185.81,22.27 	"/>
	<path class="st0" d="M198.58,22.27v8.28h-1.3v-5.6l-5.08,5.73h-0.46V22.4h1.3V28l5.08-5.73H198.58z M195.06,21.49
		c-0.59,0-1.04-0.2-1.43-0.59c-0.39-0.39-0.59-0.85-0.59-1.43h1.04c0,0.33,0.07,0.59,0.26,0.72c0.2,0.2,0.39,0.26,0.72,0.26
		c0.26,0,0.52-0.07,0.72-0.26c0.2-0.2,0.26-0.46,0.26-0.72h1.04c0,0.59-0.2,1.04-0.59,1.43C196.11,21.29,195.65,21.49,195.06,21.49
		L195.06,21.49z"/>
	<path class="st0" d="M102.47,45.01c0,1.04-0.33,1.89-1.11,2.48c-0.72,0.59-1.63,0.91-2.8,0.91v1.11h-1.3V48.4
		c-1.11,0-2.09-0.33-2.8-0.98c-0.72-0.59-1.11-1.43-1.11-2.48s0.39-1.82,1.11-2.48c0.72-0.59,1.63-0.91,2.8-0.91v-1.04h1.3v1.04
		c1.17,0,2.09,0.33,2.8,0.91C102.08,43.12,102.47,43.97,102.47,45.01L102.47,45.01z M94.72,45.07c0,0.72,0.26,1.24,0.72,1.63
		c0.46,0.39,1.11,0.59,1.82,0.59v-4.5c-0.78,0-1.37,0.2-1.82,0.59C94.98,43.77,94.72,44.29,94.72,45.07L94.72,45.07z M98.56,47.29
		c0.78,0,1.37-0.2,1.82-0.59c0.46-0.39,0.72-0.91,0.72-1.63c0-0.72-0.2-1.3-0.65-1.69s-1.11-0.59-1.82-0.59L98.56,47.29L98.56,47.29
		z"/>
	<path class="st0" d="M137.46,40.9c0.85,0,1.5,0.26,2.02,0.72c0.52,0.46,0.78,1.04,0.78,1.82c0,0.72-0.26,1.37-0.78,1.82
		c-0.52,0.46-1.17,0.72-2.02,0.72h-0.85v3.13h-1.3V40.9H137.46L137.46,40.9z M136.62,42.08v2.67h0.85c0.46,0,0.85-0.13,1.04-0.39
		c0.26-0.26,0.39-0.59,0.39-0.98s-0.13-0.72-0.39-0.98c-0.26-0.26-0.59-0.39-1.04-0.39L136.62,42.08z"/>
	<path class="st0" d="M147.24,47.75h-3.65L143,49.11h-1.37l3.58-8.28h0.46l3.58,8.28h-1.43L147.24,47.75z M145.41,43.25l-1.37,3.39
		h2.74L145.41,43.25z"/>
	<path class="st0" d="M162.68,44.1h0.78c0.85,0,1.56,0.26,2.09,0.72c0.52,0.46,0.78,1.11,0.78,1.82c0,0.78-0.26,1.37-0.78,1.82
		c-0.52,0.46-1.24,0.72-2.09,0.72h-2.09v-8.15h1.3V44.1z M162.68,45.33v2.8h0.78c0.46,0,0.85-0.13,1.11-0.39
		c0.26-0.26,0.39-0.59,0.39-1.04c0-0.39-0.13-0.78-0.39-1.04c-0.26-0.26-0.65-0.39-1.11-0.39L162.68,45.33z"/>
	<path class="st0" d="M181.77,44.03h0.91c0.85,0,1.56,0.26,2.09,0.72c0.52,0.46,0.78,1.11,0.78,1.82c0,0.78-0.26,1.37-0.78,1.82
		c-0.52,0.46-1.24,0.72-2.09,0.72h-2.22v-8.15h1.3V44.03z M181.77,45.2v2.8h0.91c0.46,0,0.85-0.13,1.11-0.39
		c0.26-0.26,0.39-0.59,0.39-1.04c0-0.39-0.13-0.78-0.39-1.04c-0.26-0.26-0.65-0.39-1.11-0.39L181.77,45.2z M187.83,49.18h-1.3v-8.15
		h1.3V49.18z"/>
	<path class="st0" d="M198.58,40.84v8.28h-1.3v-5.6l-5.08,5.73h-0.46v-8.28h1.3v5.6l5.08-5.73L198.58,40.84L198.58,40.84z
		 M195.06,40.06c-0.59,0-1.04-0.2-1.43-0.59c-0.39-0.39-0.59-0.85-0.59-1.43h1.04c0,0.33,0.07,0.59,0.26,0.72
		c0.2,0.2,0.39,0.26,0.72,0.26c0.26,0,0.52-0.07,0.72-0.26c0.2-0.2,0.26-0.46,0.26-0.72h1.04c0,0.59-0.2,1.04-0.59,1.43
		C196.11,39.86,195.65,40.06,195.06,40.06L195.06,40.06z"/>
	<path class="st0" d="M100.84,59.54l-2.8,6.58c-0.52,1.17-1.37,1.76-2.61,1.76c-0.33,0-0.65-0.07-1.04-0.13v-1.11
		c0.52,0.07,0.78,0.07,0.78,0.07c0.78,0,1.3-0.33,1.56-0.91l-2.87-6.19h1.5l2.09,4.69l1.89-4.69h1.5V59.54z"/>
	<polygon class="st0" points="111.59,67.68 110.29,67.68 110.29,63.97 106.19,63.97 106.19,67.68 104.82,67.68 104.82,59.54 
		106.19,59.54 106.19,62.8 110.29,62.8 110.29,59.54 111.59,59.54 	"/>
	<polygon class="st0" points="123.45,59.41 123.45,67.68 122.15,67.68 122.15,62.08 117.07,67.88 116.61,67.88 116.61,59.54 
		117.91,59.54 117.91,65.14 123,59.41 	"/>
	<path class="st0" d="M131.99,63.19c0.46,0.13,0.85,0.39,1.11,0.78c0.26,0.39,0.39,0.78,0.39,1.3c0,0.72-0.26,1.24-0.72,1.69
		c-0.46,0.46-1.11,0.65-1.89,0.65h-2.48v-8.15h1.82c0.72,0,1.3,0.2,1.76,0.59c0.46,0.39,0.65,0.91,0.65,1.56
		C132.71,62.28,132.45,62.8,131.99,63.19L131.99,63.19z M129.71,60.65v2.22h0.46c0.39,0,0.72-0.13,0.91-0.33
		c0.2-0.2,0.33-0.46,0.33-0.78c0-0.33-0.13-0.59-0.33-0.78c-0.2-0.2-0.52-0.33-0.91-0.33H129.71z M130.75,66.51
		c0.46,0,0.85-0.13,1.04-0.33c0.26-0.2,0.39-0.52,0.39-0.91c0-0.39-0.13-0.72-0.39-0.91c-0.26-0.26-0.59-0.33-1.04-0.33h-1.11v2.54
		L130.75,66.51L130.75,66.51z"/>
	<path class="st0" d="M149.26,59.34c0.85,0,1.5,0.26,2.02,0.72c0.52,0.46,0.78,1.04,0.78,1.82c0,0.72-0.26,1.37-0.78,1.82
		c-0.52,0.46-1.17,0.72-2.02,0.72h-0.91v3.13h-1.3v-8.15L149.26,59.34L149.26,59.34z M148.34,60.52v2.67h0.85
		c0.46,0,0.85-0.13,1.04-0.39c0.26-0.26,0.39-0.59,0.39-0.98s-0.13-0.72-0.39-0.98s-0.59-0.39-1.04-0.39L148.34,60.52z"/>
	<path class="st0" d="M159.03,59.34c0.78,0,1.43,0.2,2.09,0.52c0.65,0.33,1.11,0.78,1.43,1.37l-0.98,0.72
		c-0.59-0.91-1.43-1.43-2.48-1.43c-0.85,0-1.56,0.26-2.09,0.85c-0.59,0.59-0.85,1.3-0.85,2.15s0.26,1.56,0.85,2.15
		c0.59,0.59,1.24,0.85,2.09,0.85c1.04,0,1.89-0.46,2.48-1.43l0.98,0.72c-0.33,0.59-0.85,1.04-1.43,1.37
		c-0.65,0.33-1.3,0.52-2.09,0.52c-1.17,0-2.22-0.39-3.06-1.24c-0.85-0.78-1.24-1.82-1.24-3c0-1.17,0.39-2.22,1.24-3
		C156.88,59.74,157.86,59.34,159.03,59.34L159.03,59.34z"/>
	<polygon class="st0" points="173.11,59.41 173.11,67.68 171.8,67.68 171.8,62.08 166.72,67.88 166.26,67.88 166.26,59.54 
		167.57,59.54 167.57,65.14 172.65,59.41 	"/>
	<polygon class="st0" points="181.71,60.71 179.88,60.71 179.88,67.68 178.58,67.68 178.58,60.71 176.82,60.71 176.82,59.54 
		181.71,59.54 	"/>
	<polygon class="st0" points="198.58,60.71 196.82,60.71 196.82,67.68 195.52,67.68 195.52,60.71 193.76,60.71 193.76,59.54 
		198.58,59.54 	"/>
	<polygon class="st0" points="110.88,47.88 107.88,47.88 107.88,45.27 110.88,45.27 110.88,44.1 107.88,44.1 107.88,42.01 
		110.88,42.01 110.88,40.84 106.58,40.84 106.58,49.05 110.88,49.05 	"/>
	<polygon class="st0" points="131.01,47.94 127.82,47.94 127.82,45.4 130.88,45.4 130.88,44.23 127.82,44.23 127.82,42.14 
		131.01,42.14 131.01,40.97 126.52,40.97 126.52,49.11 131.01,49.11 	"/>
	<polygon class="st0" points="142.15,66.45 139.09,66.45 139.09,63.91 142.09,63.91 142.09,62.73 139.09,62.73 139.09,60.65 
		142.15,60.65 142.15,59.47 137.72,59.47 137.72,67.62 142.15,67.62 	"/>
	<polygon class="st0" points="190.18,66.51 187.11,66.51 187.11,63.97 190.18,63.97 190.18,62.8 187.11,62.8 187.11,60.71 
		190.18,60.71 190.18,59.54 185.81,59.54 185.81,67.68 190.18,67.68 	"/>
	<path class="st0" d="M167.11,22.4h1.3v8.15h-1.3V22.4z M174.15,30.54h-1.63l-3.78-4.37l3.45-3.84h1.63l-3.39,3.84L174.15,30.54z"/>
	<rect x="167.57" y="25.72" class="st0" width="1.89" height="1.11"/>
	<polygon class="st0" points="176.49,49.24 175.19,49.24 175.19,45.53 171.09,45.53 171.09,49.24 169.78,49.24 169.78,41.1 
		171.09,41.1 171.09,44.36 175.19,44.36 175.19,41.1 176.49,41.1 	"/>
	<path class="st0" d="M122.48,47.88v2.93h-1.3v-1.76h-5.54v1.76h-1.3v-2.93h0.65c0.59-0.46,0.98-1.17,1.3-2.09
		c0.33-0.91,0.46-2.15,0.46-3.71V40.9h4.76v7.04L122.48,47.88z M116.42,47.88h3.71v-5.8h-2.22
		C117.85,44.81,117.39,46.7,116.42,47.88"/>
	<path class="st0" d="M157.6,41.03v8.15h-1.3v-6.97h-2.41c0,1.3-0.13,2.35-0.26,3.26c-0.13,0.91-0.39,1.63-0.72,2.15
		c-0.33,0.52-0.65,0.91-1.04,1.17c-0.39,0.26-0.85,0.39-1.37,0.46v-1.24c0.72-0.13,1.24-0.65,1.56-1.56s0.52-2.22,0.52-4.11v-1.3
		L157.6,41.03z"/>
</g>
</svg>
