<?xml version="1.0" encoding="utf-8"?>
<!-- Generator: Adobe Illustrator 26.1.0, SVG Export Plug-In . SVG Version: 6.00 Build 0)  -->
<svg version="1.1" id="Слой_1" xmlns="http://www.w3.org/2000/svg" xmlns:xlink="http://www.w3.org/1999/xlink" x="0px" y="0px"
	 viewBox="0 0 232.23 90.08" style="enable-background:new 0 0 232.23 90.08;" xml:space="preserve">
<style type="text/css">
	.st0{fill:#FFFFFF;}
	.st1{enable-background:new    ;}
</style>
<g>
	<path class="st0" d="M48.28,9.79c-19.48,0-35.25,15.77-35.25,35.25S28.8,80.29,48.28,80.29s35.25-15.77,35.25-35.25
		S67.77,9.79,48.28,9.79z M63.47,40.02v22.61c0,2.8-2.28,5.02-5.02,5.02c-2.8,0-5.02-2.28-5.02-5.02v-7.56
		c0-2.8-2.28-5.02-5.02-5.02c-2.8,0-5.02,2.28-5.02,5.02v7.56c0,2.8-2.28,5.02-5.02,5.02c-2.8,0-5.02-2.28-5.02-5.02V27.32
		c0-2.8,2.28-5.02,5.02-5.02c2.8,0,5.02,2.28,5.02,5.02v10.1c0,2.8,2.28,5.02,5.02,5.02c3.65,0,4.3-2.93,5.8-5.15
		c0.13-0.2,0.26-0.46,0.46-0.65c0.85-1.04,1.95-1.76,3.84-1.76c0.59,0,1.11,0.07,1.5,0.2c2.09,0.65,3.58,2.54,3.58,4.82
		C63.47,39.96,63.4,40.02,63.47,40.02L63.47,40.02z M58.38,32.4c-2.8,0-5.02-2.28-5.02-5.02c0-2.8,2.28-5.02,5.02-5.02
		c2.8,0,5.02,2.28,5.02,5.02C63.47,30.12,61.19,32.4,58.38,32.4z"/>
	<g>
		<path class="st0" d="M99.83,31.62h5.08v1.17h-3.78v7.04h-1.3V31.62z"/>
		<path class="st0" d="M114.81,31.62l-2.87,6.19c-0.26,0.52-0.46,0.91-0.65,1.24c-0.2,0.33-0.46,0.52-0.78,0.72
			c-0.33,0.13-0.65,0.26-1.11,0.26c-0.26,0-0.52-0.07-0.78-0.13v-1.11c0.2,0.07,0.39,0.07,0.65,0.07s0.46-0.07,0.65-0.13
			c0.2-0.13,0.39-0.26,0.52-0.52l-3.19-6.45h1.5l2.41,4.95l2.22-4.95h1.43V31.62z"/>
		<path class="st0" d="M125.76,31.49v8.34h-1.3v-5.15l-2.35,3.06h-0.46l-2.35-3.13v5.15h-1.3v-8.34h0.46l3.45,4.56l3.45-4.56h0.39
			V31.49z"/>
		<path class="st0" d="M134.56,38.46h-3.71l-0.59,1.37h-1.43l3.65-8.34h0.46l3.65,8.34h-1.43L134.56,38.46z M132.73,33.96
			l-1.37,3.39h2.74L132.73,33.96z"/>
		<path class="st0" d="M139.64,31.62h1.3v3.26h4.11v-3.26h1.3v8.21h-1.3v-3.78h-4.11v3.78h-1.3V31.62z"/>
		<path class="st0" d="M157.17,31.49v8.34h-1.3v-5.73l-5.08,5.86h-0.46v-8.34h1.3v5.73l5.08-5.86H157.17z"/>
		<path class="st0" d="M162.97,32.79h-2.74v-1.17h6.84v1.17h-2.8v7.04h-1.3V32.79z"/>
		<path class="st0" d="M175.02,38.46h-3.71l-0.59,1.37h-1.43l3.65-8.34h0.46l3.65,8.34h-1.43L175.02,38.46z M173.13,33.96
			l-1.37,3.39h2.74L173.13,33.96z"/>
		<path class="st0" d="M180.1,31.62h3c0.52,0,1.04,0.13,1.43,0.33c0.39,0.2,0.78,0.52,0.98,0.91c0.26,0.39,0.33,0.85,0.33,1.3
			c0,0.52-0.13,0.91-0.33,1.3c-0.26,0.39-0.59,0.65-0.98,0.91c-0.39,0.2-0.91,0.33-1.43,0.33h-1.69v3.19h-1.3V31.62z M183.1,35.46
			c0.46,0,0.85-0.13,1.11-0.39c0.26-0.26,0.39-0.59,0.39-0.98s-0.13-0.72-0.39-0.98c-0.26-0.26-0.59-0.39-1.11-0.39h-1.63v2.67h1.63
			V35.46z"/>
		<path class="st0" d="M189.16,31.62h1.3v3.26h4.11v-3.26h1.3v8.21h-1.3v-3.78h-4.11v3.78h-1.3V31.62z"/>
		<path class="st0" d="M199.78,31.62h1.3v3.06h1.63c0.59,0,1.04,0.13,1.5,0.33s0.78,0.52,1.04,0.91c0.26,0.39,0.39,0.85,0.39,1.37
			c0,0.52-0.13,0.98-0.39,1.37c-0.26,0.39-0.59,0.72-0.98,0.91c-0.46,0.2-0.91,0.33-1.5,0.33h-3V31.62z M202.78,38.66
			c0.46,0,0.85-0.13,1.11-0.39c0.26-0.26,0.39-0.59,0.39-1.04c0-0.39-0.13-0.78-0.39-1.04c-0.26-0.26-0.65-0.39-1.11-0.39h-1.63
			v2.87L202.78,38.66L202.78,38.66z M207.08,31.62h1.3v8.21h-1.3V31.62z"/>
		<path class="st0" d="M219.2,31.49v8.34h-1.3v-5.73l-5.08,5.86h-0.46v-8.34h1.3v5.73l5.08-5.86H219.2z M214.38,30.25
			c-0.39-0.39-0.52-0.91-0.52-1.5v-0.26h1.04v0.26c0,0.33,0.07,0.59,0.26,0.78c0.13,0.2,0.39,0.26,0.72,0.26s0.52-0.07,0.72-0.26
			c0.2-0.2,0.26-0.46,0.26-0.78v-0.26h1.11v0.26c0,0.65-0.2,1.11-0.59,1.5s-0.85,0.59-1.5,0.59
			C215.23,30.84,214.77,30.64,214.38,30.25z"/>
		<path class="st0" d="M106.67,49.86v8.34h-1.3v-5.73l-5.08,5.86h-0.46v-8.34h1.3v5.73l5.08-5.86H106.67z"/>
		<path class="st0" d="M110.51,49.99h1.3v3.26h4.11v-3.26h1.3v8.21h-1.3v-3.78h-4.11v3.78h-1.3V49.99z"/>
		<path class="st0" d="M122.83,57.81c-0.65-0.39-1.17-0.91-1.56-1.5c-0.39-0.65-0.59-1.37-0.59-2.15c0-0.78,0.2-1.5,0.59-2.15
			c0.39-0.65,0.91-1.17,1.56-1.5c0.65-0.39,1.37-0.59,2.15-0.59s1.43,0.2,2.09,0.52c0.59,0.33,1.11,0.78,1.43,1.37l-0.98,0.72
			c-0.26-0.46-0.65-0.78-1.04-1.04c-0.39-0.26-0.91-0.39-1.43-0.39c-0.59,0-1.04,0.13-1.5,0.39c-0.46,0.26-0.78,0.65-1.04,1.11
			s-0.39,0.98-0.39,1.56c0,0.59,0.13,1.11,0.39,1.56c0.26,0.46,0.59,0.85,1.04,1.11c0.46,0.26,0.98,0.39,1.5,0.39
			s1.04-0.13,1.43-0.39c0.39-0.26,0.78-0.59,1.04-1.04l0.98,0.72c-0.33,0.59-0.85,1.04-1.43,1.37c-0.59,0.33-1.3,0.52-2.09,0.52
			C124.2,58.33,123.48,58.2,122.83,57.81z"/>
		<path class="st0" d="M133.84,51.23h-2.74v-1.24h6.84v1.17h-2.8v7.04h-1.3V51.23z"/>
		<path class="st0" d="M147.78,49.86v8.34h-1.3v-5.73l-5.08,5.86h-0.46v-8.34h1.3v5.73l5.08-5.86H147.78z"/>
		<path class="st0" d="M153.58,51.23h-2.74v-1.24h6.84v1.17h-2.8v7.04h-1.3V51.23z"/>
		<path class="st0" d="M167.59,49.99l-2.87,6.19c-0.26,0.52-0.46,0.91-0.65,1.24c-0.2,0.33-0.46,0.52-0.78,0.72
			c-0.33,0.13-0.65,0.26-1.11,0.26c-0.26,0-0.52-0.07-0.78-0.13v-1.11c0.2,0.07,0.39,0.07,0.65,0.07c0.26,0,0.46-0.07,0.65-0.13
			c0.2-0.13,0.39-0.26,0.52-0.52l-3.19-6.45h1.5l2.41,4.95l2.22-4.95h1.43V49.99z"/>
		<path class="st0" d="M172.61,51.23h-2.74v-1.24h6.84v1.17h-2.8v7.04h-1.3V51.23z"/>
	</g>
</g>
</svg>
