<?xml version="1.0" encoding="utf-8"?>
<!-- Generator: Adobe Illustrator 26.1.0, SVG Export Plug-In . SVG Version: 6.00 Build 0)  -->
<svg version="1.1" id="Слой_1" xmlns="http://www.w3.org/2000/svg" xmlns:xlink="http://www.w3.org/1999/xlink" x="0px" y="0px"
	 viewBox="0 0 207.48 90.08" style="enable-background:new 0 0 207.48 90.08;" xml:space="preserve">
<style type="text/css">
	.st0{fill:#FFFFFF;}
	.st1{enable-background:new    ;}
</style>
<g>
	<g class="st1">
		<path class="st0" d="M93.69,16.87v7.85h-1.23v-5.39l-4.78,5.53h-0.43v-7.85h1.23v5.39l4.78-5.51h0.43V16.87z"/>
		<path class="st0" d="M97.31,17.01h1.23v3.07h3.89v-3.07h1.23v7.73h-1.23v-3.53h-3.89v3.53h-1.23V17.01z"/>
		<path class="st0" d="M108.89,24.33c-0.63-0.36-1.11-0.82-1.47-1.45c-0.36-0.6-0.56-1.28-0.56-2.03c0-0.75,0.19-1.43,0.56-2.03
			s0.85-1.09,1.47-1.45c0.63-0.36,1.3-0.53,2.03-0.53c0.7,0,1.35,0.17,1.93,0.48s1.04,0.75,1.38,1.3l-0.94,0.7
			c-0.27-0.43-0.6-0.75-1.01-0.99c-0.39-0.24-0.85-0.34-1.35-0.34c-0.53,0-0.99,0.12-1.43,0.36c-0.43,0.24-0.75,0.58-0.99,1.01
			c-0.24,0.43-0.36,0.92-0.36,1.47c0,0.56,0.12,1.01,0.36,1.47c0.24,0.46,0.58,0.77,0.99,1.01c0.43,0.24,0.89,0.36,1.43,0.36
			c0.51,0,0.97-0.12,1.35-0.34c0.39-0.24,0.72-0.56,1.01-0.99l0.94,0.7c-0.34,0.56-0.77,0.99-1.35,1.3
			c-0.58,0.31-1.23,0.48-1.96,0.48C110.19,24.87,109.52,24.67,108.89,24.33z"/>
		<path class="st0" d="M119.23,18.12h-2.59v-1.11h6.45v1.11h-2.61v6.62h-1.23v-6.62H119.23z"/>
		<path class="st0" d="M132.4,16.87v7.85h-1.23v-5.39l-4.78,5.53h-0.43v-7.85h1.23v5.39l4.78-5.51h0.43V16.87z"/>
		<path class="st0" d="M137.86,18.12h-2.59v-1.11h6.45v1.11h-2.61v6.62h-1.23v-6.62H137.86z"/>
		<path class="st0" d="M150.98,17.01l-2.71,5.85c-0.22,0.48-0.43,0.85-0.63,1.14c-0.19,0.29-0.43,0.51-0.72,0.65
			c-0.27,0.14-0.63,0.22-1.01,0.22c-0.22,0-0.48-0.05-0.75-0.12v-1.09c0.19,0.02,0.39,0.05,0.6,0.05c0.24,0,0.46-0.05,0.63-0.14
			c0.17-0.1,0.34-0.27,0.51-0.51l-2.97-6.04h1.4l2.27,4.66l2.1-4.66L150.98,17.01L150.98,17.01z"/>
		<path class="st0" d="M155.74,18.12h-2.59v-1.11h6.45v1.11H157v6.62h-1.23v-6.62H155.74z"/>
	</g>
	<g class="st1">
		<path class="st0" d="M93.23,39.47h-5.99v-7.73h1.23v6.62h3.75v-6.62h1.23v6.62h0.97v2.75h-1.21v-1.64H93.23z"/>
		<path class="st0" d="M103.86,31.62v7.85h-1.23v-5.39l-4.78,5.51h-0.43v-7.85h1.23v5.39l4.78-5.51H103.86z"/>
		<path class="st0" d="M115.63,35.55c0,0.65-0.17,1.21-0.48,1.69c-0.31,0.48-0.75,0.85-1.3,1.11s-1.21,0.39-1.93,0.41v0.94h-1.23
			v-0.94c-0.72-0.02-1.35-0.14-1.91-0.41c-0.56-0.27-0.99-0.63-1.3-1.11c-0.31-0.48-0.46-1.04-0.46-1.69c0-0.65,0.14-1.21,0.46-1.67
			c0.31-0.46,0.75-0.85,1.3-1.09c0.56-0.24,1.18-0.39,1.91-0.41v-0.87h1.23v0.87c0.72,0.02,1.38,0.14,1.93,0.41
			c0.56,0.27,0.99,0.63,1.3,1.09C115.48,34.35,115.63,34.9,115.63,35.55z M108.89,37.1c0.43,0.36,1.04,0.56,1.79,0.56v-4.2
			c-0.75,0.02-1.35,0.22-1.79,0.58s-0.65,0.89-0.65,1.55S108.45,36.74,108.89,37.1z M113.72,37.1c0.43-0.36,0.68-0.89,0.68-1.55
			c0-0.65-0.22-1.18-0.68-1.55c-0.43-0.36-1.04-0.56-1.81-0.56v4.2C112.68,37.66,113.29,37.46,113.72,37.1z"/>
		<path class="st0" d="M118.77,31.74h2.83c0.51,0,0.97,0.1,1.38,0.29c0.41,0.19,0.7,0.48,0.92,0.85c0.22,0.36,0.34,0.77,0.34,1.23
			c0,0.46-0.12,0.87-0.34,1.23c-0.22,0.36-0.53,0.63-0.92,0.85c-0.39,0.19-0.85,0.31-1.38,0.31h-1.57v2.97h-1.23v-7.73H118.77z
			 M121.57,35.38c0.43,0,0.77-0.12,1.01-0.34c0.24-0.24,0.36-0.53,0.36-0.92c0-0.39-0.12-0.7-0.36-0.92
			c-0.24-0.24-0.58-0.36-1.01-0.36h-1.55v2.54H121.57z"/>
		<path class="st0" d="M128.82,39.06c-0.63-0.36-1.11-0.82-1.47-1.45c-0.36-0.6-0.53-1.28-0.53-2.03c0-0.75,0.19-1.43,0.56-2.03
			c0.36-0.6,0.85-1.09,1.47-1.45c0.6-0.36,1.3-0.53,2.03-0.53c0.72,0,1.4,0.17,2.03,0.53s1.11,0.82,1.47,1.45
			c0.36,0.63,0.56,1.28,0.56,2.03c0,0.75-0.19,1.43-0.56,2.03c-0.36,0.6-0.85,1.09-1.47,1.45c-0.63,0.36-1.3,0.53-2.03,0.53
			C130.13,39.59,129.45,39.42,128.82,39.06z M132.3,38.09c0.41-0.24,0.75-0.58,0.99-1.01c0.24-0.43,0.36-0.92,0.36-1.47
			c0-0.53-0.12-1.01-0.36-1.45c-0.24-0.43-0.58-0.77-0.99-1.01c-0.41-0.24-0.89-0.36-1.43-0.36c-0.53,0-1.01,0.12-1.43,0.36
			c-0.41,0.24-0.75,0.58-0.99,1.01c-0.24,0.43-0.36,0.92-0.36,1.45c0,0.56,0.12,1.04,0.36,1.47c0.24,0.43,0.56,0.77,0.99,1.01
			c0.43,0.24,0.89,0.36,1.43,0.36C131.41,38.45,131.87,38.33,132.3,38.09z"/>
		<path class="st0" d="M143.54,35.99c0.24,0.34,0.39,0.75,0.39,1.23c0,0.43-0.1,0.82-0.31,1.16c-0.22,0.34-0.51,0.6-0.87,0.8
			c-0.39,0.19-0.82,0.29-1.3,0.29h-3.31v-7.73h2.71c0.46,0,0.87,0.1,1.21,0.27c0.36,0.17,0.63,0.41,0.82,0.72
			c0.19,0.31,0.29,0.68,0.29,1.06c0,0.29-0.05,0.56-0.17,0.82c-0.12,0.24-0.27,0.46-0.48,0.63
			C142.93,35.41,143.3,35.65,143.54,35.99z M139.33,32.82v2.08h1.38c0.39,0,0.68-0.1,0.89-0.29s0.31-0.43,0.31-0.77
			c0-0.31-0.1-0.58-0.31-0.75c-0.22-0.19-0.51-0.27-0.89-0.27H139.33z M142.3,38.04c0.24-0.22,0.36-0.51,0.36-0.87
			c0-0.36-0.12-0.65-0.36-0.87c-0.24-0.22-0.58-0.34-0.99-0.34h-1.98v2.39h1.98C141.75,38.38,142.09,38.26,142.3,38.04z"/>
		<path class="st0" d="M147.04,31.74h1.23v2.85h1.55c0.53,0,0.99,0.1,1.4,0.31c0.41,0.22,0.72,0.48,0.94,0.87
			c0.22,0.36,0.34,0.8,0.34,1.26c0,0.48-0.12,0.89-0.34,1.26c-0.22,0.36-0.53,0.65-0.94,0.87c-0.41,0.22-0.87,0.31-1.43,0.31h-2.8
			v-7.73H147.04z M149.82,38.36c0.46,0,0.8-0.12,1.06-0.36c0.24-0.24,0.39-0.56,0.39-0.97s-0.12-0.72-0.39-0.97
			c-0.24-0.24-0.6-0.36-1.06-0.36h-1.55v2.66H149.82z M153.9,31.74h1.23v7.73h-1.23V31.74z"/>
		<path class="st0" d="M163.23,39.47l-1.86-2.88l-1.86,2.88h-1.43l2.61-3.94l-2.44-3.77h1.43l1.72,2.73l1.69-2.73h1.43l-2.39,3.77
			l2.59,3.94H163.23z"/>
	</g>
	<g class="st1">
		<path class="st0" d="M87.24,47.91h4.78v1.11H88.5v6.62h-1.23v-7.73H87.24z"/>
		<path class="st0" d="M101.37,47.91l-2.71,5.82c-0.22,0.48-0.43,0.85-0.63,1.14s-0.43,0.51-0.72,0.65
			c-0.27,0.14-0.63,0.22-1.01,0.22c-0.22,0-0.48-0.05-0.75-0.12v-1.06c0.19,0.02,0.39,0.05,0.6,0.05c0.24,0,0.46-0.05,0.63-0.14
			c0.19-0.1,0.34-0.27,0.51-0.51l-2.97-6.04h1.4l2.27,4.66l2.1-4.66L101.37,47.91L101.37,47.91z"/>
		<path class="st0" d="M111.64,47.76v7.85h-1.23v-4.83l-2.22,2.9h-0.41l-2.22-2.92v4.86h-1.23v-7.85h0.43l3.24,4.33l3.24-4.33
			H111.64z"/>
		<path class="st0" d="M119.91,54.34h-3.48l-0.56,1.28h-1.33l3.41-7.85h0.41l3.41,7.85h-1.33L119.91,54.34z M118.19,50.08l-1.3,3.19
			h2.59L118.19,50.08z"/>
		<path class="st0" d="M124.71,47.91h1.23v3.07h3.89v-3.07h1.23v7.73h-1.23v-3.53h-3.87v3.53h-1.23v-7.73H124.71z"/>
		<path class="st0" d="M141.19,47.76v7.85h-1.23v-5.39l-4.78,5.53h-0.43v-7.85h1.23v5.39l4.78-5.51h0.43V47.76z"/>
		<path class="st0" d="M146.65,49.02h-2.59v-1.11h6.45v1.11h-2.61v6.62h-1.23v-6.62H146.65z"/>
		<path class="st0" d="M157.12,54.34h-3.48l-0.56,1.28h-1.33l3.41-7.85h0.41l3.41,7.85h-1.33L157.12,54.34z M155.38,50.08l-1.3,3.19
			h2.59L155.38,50.08z"/>
		<path class="st0" d="M161.92,47.91h2.83c0.51,0,0.97,0.1,1.38,0.29c0.39,0.19,0.7,0.48,0.92,0.85c0.22,0.36,0.34,0.77,0.34,1.23
			s-0.12,0.87-0.34,1.23c-0.22,0.36-0.53,0.63-0.92,0.85c-0.39,0.19-0.85,0.31-1.38,0.31h-1.57v2.97h-1.23v-7.73H161.92z
			 M164.7,51.53c0.43,0,0.77-0.12,1.01-0.34c0.24-0.24,0.36-0.53,0.36-0.92s-0.12-0.7-0.36-0.92c-0.24-0.24-0.58-0.36-1.01-0.36
			h-1.55v2.54H164.7z"/>
		<path class="st0" d="M170.43,47.91h1.23v3.07h3.89v-3.07h1.23v7.73h-1.23v-3.53h-3.89v3.53h-1.23V47.91z"/>
		<path class="st0" d="M180.46,47.91h1.23v2.85h1.55c0.53,0,0.99,0.1,1.4,0.31c0.41,0.22,0.72,0.48,0.94,0.87
			c0.22,0.36,0.34,0.8,0.34,1.26s-0.12,0.89-0.34,1.26c-0.22,0.36-0.53,0.65-0.94,0.87c-0.41,0.22-0.87,0.31-1.43,0.31h-2.8v-7.73
			H180.46z M183.24,54.53c0.46,0,0.8-0.12,1.06-0.36c0.27-0.24,0.39-0.56,0.39-0.97s-0.12-0.72-0.39-0.97
			c-0.24-0.24-0.6-0.36-1.06-0.36h-1.55v2.66H183.24z M187.32,47.91h1.23v7.73h-1.23V47.91z"/>
		<path class="st0" d="M196.65,55.62l-1.86-2.88l-1.86,2.88h-1.43l2.61-3.94l-2.44-3.77h1.43l1.72,2.73l1.69-2.73h1.43l-2.39,3.77
			l2.59,3.94H196.65z"/>
	</g>
	<g class="st1">
		<path class="st0" d="M93.69,64.03v7.85h-1.23V66.5l-4.78,5.53h-0.43v-7.85h1.23v5.39l4.78-5.51h0.43V64.03z"/>
		<path class="st0" d="M98.89,71.47c-0.63-0.36-1.11-0.82-1.47-1.45c-0.36-0.6-0.56-1.28-0.56-2.03c0-0.75,0.19-1.43,0.56-2.03
			s0.85-1.09,1.47-1.45c0.63-0.36,1.3-0.53,2.03-0.53c0.7,0,1.35,0.17,1.93,0.48s1.04,0.75,1.38,1.3l-0.94,0.7
			c-0.27-0.43-0.6-0.75-1.01-0.99c-0.39-0.24-0.85-0.34-1.35-0.34c-0.53,0-0.99,0.12-1.43,0.36s-0.75,0.58-0.99,1.01
			c-0.24,0.43-0.36,0.92-0.36,1.47c0,0.56,0.12,1.01,0.36,1.47c0.24,0.43,0.58,0.77,0.99,1.01c0.43,0.24,0.89,0.36,1.43,0.36
			c0.51,0,0.97-0.12,1.35-0.34c0.39-0.24,0.72-0.56,1.01-0.99l0.94,0.7c-0.34,0.56-0.77,0.99-1.35,1.3
			c-0.58,0.31-1.23,0.48-1.96,0.48C100.17,72.01,99.49,71.84,98.89,71.47z"/>
		<path class="st0" d="M108.91,71.47c-0.63-0.36-1.11-0.82-1.47-1.45c-0.36-0.6-0.56-1.28-0.56-2.03c0-0.75,0.19-1.43,0.56-2.03
			s0.85-1.09,1.47-1.45c0.63-0.36,1.3-0.53,2.03-0.53c0.7,0,1.35,0.17,1.93,0.48s1.04,0.75,1.38,1.3l-0.94,0.7
			c-0.27-0.43-0.6-0.75-1.01-0.99c-0.39-0.24-0.85-0.34-1.35-0.34c-0.53,0-0.99,0.12-1.43,0.36c-0.43,0.24-0.75,0.58-0.99,1.01
			c-0.24,0.43-0.36,0.92-0.36,1.47c0,0.56,0.12,1.01,0.36,1.47s0.58,0.77,0.99,1.01c0.43,0.24,0.89,0.36,1.43,0.36
			c0.51,0,0.97-0.12,1.35-0.34c0.39-0.24,0.72-0.56,1.01-0.99l0.94,0.7c-0.34,0.56-0.77,0.99-1.35,1.3
			c-0.58,0.31-1.23,0.48-1.96,0.48C110.19,72.01,109.52,71.84,108.91,71.47z"/>
		<path class="st0" d="M123.34,64.15v7.73h-1.23v-6.62h-2.61c-0.05,1.72-0.17,3.04-0.34,4.01c-0.17,0.97-0.43,1.67-0.77,2.08
			c-0.34,0.41-0.77,0.6-1.33,0.6c-0.24,0-0.41-0.02-0.56-0.1V70.8c0.02,0.02,0.14,0.02,0.34,0.02c0.36,0,0.63-0.19,0.85-0.6
			c0.22-0.41,0.36-0.99,0.46-1.79c0.1-0.8,0.17-1.79,0.19-3.02v-1.26L123.34,64.15L123.34,64.15z"/>
		<path class="st0" d="M126.96,64.15h5.07v1.11h-3.84v1.98h2.9v1.09h-2.9v2.44h3.99v1.11h-5.22V64.15z"/>
		<path class="st0" d="M142.18,70.77v2.75h-1.23v-1.64h-5.19v1.64h-1.23v-2.75h0.6c0.36-0.34,0.65-0.94,0.82-1.84
			c0.17-0.87,0.27-2.1,0.27-3.7v-1.11h5v6.64H142.18z M136.48,70.77h3.5v-5.51h-2.61C137.35,68.02,137.04,69.86,136.48,70.77z"/>
		<path class="st0" d="M146.53,71.47c-0.63-0.36-1.11-0.82-1.47-1.45c-0.36-0.6-0.53-1.28-0.53-2.03c0-0.75,0.19-1.43,0.56-2.03
			c0.36-0.6,0.85-1.09,1.47-1.45c0.6-0.36,1.3-0.53,2.03-0.53c0.72,0,1.4,0.17,2.03,0.53c0.63,0.36,1.11,0.82,1.47,1.45
			c0.36,0.63,0.56,1.28,0.56,2.03c0,0.75-0.19,1.43-0.56,2.03c-0.36,0.6-0.85,1.09-1.47,1.45c-0.63,0.36-1.3,0.53-2.03,0.53
			C147.84,72.01,147.16,71.84,146.53,71.47z M150.01,70.51c0.41-0.24,0.75-0.58,0.99-1.01s0.36-0.92,0.36-1.47
			c0-0.53-0.12-1.01-0.36-1.45c-0.24-0.43-0.58-0.77-0.99-1.01c-0.41-0.24-0.89-0.36-1.43-0.36c-0.53,0-1.01,0.12-1.43,0.36
			c-0.41,0.24-0.75,0.58-0.99,1.01s-0.36,0.92-0.36,1.45c0,0.56,0.12,1.04,0.36,1.47c0.24,0.43,0.56,0.77,0.99,1.01
			c0.43,0.24,0.89,0.36,1.43,0.36C149.12,70.87,149.58,70.75,150.01,70.51z"/>
		<path class="st0" d="M161.25,68.41c0.24,0.34,0.39,0.75,0.39,1.23c0,0.43-0.1,0.82-0.31,1.16c-0.22,0.34-0.51,0.6-0.87,0.8
			c-0.39,0.19-0.82,0.29-1.3,0.29h-3.31v-7.73h2.71c0.46,0,0.87,0.1,1.21,0.27c0.36,0.17,0.63,0.41,0.82,0.72
			c0.19,0.31,0.29,0.68,0.29,1.06c0,0.29-0.05,0.56-0.17,0.82c-0.12,0.27-0.27,0.46-0.48,0.63
			C160.64,67.83,161.01,68.07,161.25,68.41z M157.04,65.24v2.08h1.38c0.39,0,0.68-0.1,0.89-0.29c0.22-0.19,0.31-0.43,0.31-0.77
			c0-0.31-0.1-0.58-0.31-0.75c-0.22-0.19-0.51-0.27-0.89-0.27L157.04,65.24L157.04,65.24z M160.04,70.46
			c0.24-0.22,0.36-0.51,0.36-0.87c0-0.36-0.12-0.65-0.36-0.87s-0.58-0.34-0.99-0.34h-1.98v2.39h1.98
			C159.46,70.8,159.8,70.68,160.04,70.46z"/>
		<path class="st0" d="M169.27,70.58h-3.48l-0.56,1.28h-1.33l3.41-7.85h0.41l3.41,7.85h-1.33L169.27,70.58z M167.53,66.33l-1.3,3.19
			h2.59L167.53,66.33z"/>
		<path class="st0" d="M174.08,64.15h1.23v3.07h3.89v-3.07h1.23v7.73h-1.23v-3.53h-3.89v3.53h-1.23V64.15z"/>
		<path class="st0" d="M190.56,64.03v7.85h-1.23V66.5l-4.78,5.53h-0.43v-7.85h1.23v5.39l4.78-5.51h0.43V64.03z"/>
		<path class="st0" d="M200.63,64.03v7.85h-1.23V66.5l-4.78,5.53h-0.43v-7.85h1.23v5.39l4.78-5.51h0.43V64.03z M196.14,62.87
			c-0.34-0.36-0.53-0.82-0.53-1.43v-0.24h1.01v0.27c0,0.31,0.07,0.58,0.22,0.75c0.14,0.17,0.36,0.27,0.65,0.27
			c0.29,0,0.51-0.1,0.65-0.27s0.24-0.43,0.24-0.75v-0.27h1.01v0.24c0,0.58-0.17,1.06-0.53,1.43c-0.36,0.36-0.82,0.53-1.38,0.53
			C196.94,63.43,196.5,63.24,196.14,62.87z"/>
	</g>
	<path class="st0" d="M23.04,79.21c-0.43,0-0.8-0.36-0.8-0.8c0-0.29,0.17-0.56,0.41-0.7l6.31-2.66c1.81-0.77,3-2.54,3-4.49v-4.01
		c0-0.43,0.31-0.8,0.75-0.85c0.43-0.02,0.82,0.31,0.85,0.75c0,0.02,0,0.02,0,0.05v4.23c0,2.44-1.45,4.64-3.67,5.61l-6.43,2.78
		C23.31,79.16,23.16,79.21,23.04,79.21"/>
	<path class="st0" d="M32.27,82.54c-0.43,0-0.8-0.36-0.8-0.8c0-0.14,0.05-0.29,0.12-0.41l3.36-5.73c0.43-0.75,0.68-1.59,0.68-2.46
		v-5.27c0-0.43,0.31-0.8,0.75-0.85c0.43-0.02,0.82,0.31,0.85,0.75c0,0.02,0,0.02,0,0.05v5.73c0,0.87-0.24,1.72-0.68,2.46l-3.6,6.11
		C32.8,82.37,32.54,82.52,32.27,82.54"/>
	<path class="st0" d="M44.18,82.54c-0.29,0-0.56-0.14-0.7-0.41l-3.58-6.09c-0.43-0.75-0.68-1.59-0.68-2.46v-5.7
		c0-0.43,0.31-0.8,0.75-0.85c0.43-0.02,0.82,0.31,0.85,0.75c0,0.02,0,0.02,0,0.05v5.29c0,0.87,0.24,1.72,0.68,2.46l3.36,5.73
		c0.22,0.39,0.1,0.87-0.29,1.09C44.45,82.49,44.3,82.54,44.18,82.54"/>
	<path class="st0" d="M53.39,79.21c-0.14,0-0.27-0.02-0.39-0.1l-6.43-2.78c-2.22-0.97-3.67-3.17-3.67-5.61v-4.18
		c0-0.43,0.31-0.8,0.75-0.85c0.43-0.02,0.82,0.31,0.85,0.75c0,0.02,0,0.02,0,0.05v4.04c0,1.98,1.18,3.75,3,4.52l6.28,2.66
		c0.39,0.22,0.53,0.7,0.31,1.09C53.94,79.04,53.68,79.21,53.39,79.21"/>
	<path class="st0" d="M29.08,33.59c0,2.63-2.13,4.76-4.76,4.76s-4.76-2.13-4.76-4.76s2.13-4.76,4.76-4.76S29.08,30.93,29.08,33.59
		L29.08,33.59"/>
	<path class="st0" d="M29.08,49.37c0,2.63-2.13,4.76-4.76,4.76s-4.76-2.13-4.76-4.76s2.13-4.76,4.76-4.76S29.08,46.73,29.08,49.37
		L29.08,49.37"/>
	<path class="st0" d="M56.89,33.59c0,2.63-2.13,4.76-4.76,4.76c-2.63,0-4.76-2.13-4.76-4.76s2.13-4.76,4.76-4.76l0,0
		C54.76,28.8,56.89,30.93,56.89,33.59"/>
	<path class="st0" d="M56.89,49.37c0,2.63-2.13,4.76-4.76,4.76c-2.63,0-4.76-2.13-4.76-4.76s2.13-4.76,4.76-4.76l0,0
		C54.76,44.58,56.89,46.73,56.89,49.37"/>
	<path class="st0" d="M42.97,25.81c0,2.63-2.13,4.76-4.76,4.76s-4.76-2.13-4.76-4.76s2.13-4.76,4.76-4.76
		C40.85,21.05,42.97,23.17,42.97,25.81L42.97,25.81"/>
	<path class="st0" d="M42.97,41.47c0,2.63-2.13,4.78-4.76,4.78s-4.78-2.13-4.78-4.76s2.13-4.78,4.76-4.78l0,0
		C40.85,36.71,42.97,38.83,42.97,41.47L42.97,41.47"/>
	<path class="st0" d="M42.97,57.12c0,2.63-2.13,4.76-4.76,4.78c-2.63,0.02-4.76-2.13-4.78-4.76c0-2.63,2.13-4.76,4.76-4.78l0,0
		C40.85,52.36,42.97,54.49,42.97,57.12L42.97,57.12"/>
	<path class="st0" d="M12.92,25.81c0-1.38-1.11-2.49-2.49-2.49s-2.49,1.11-2.49,2.49s1.11,2.49,2.49,2.49l0,0
		C11.8,28.3,12.92,27.19,12.92,25.81"/>
	<path class="st0" d="M13.95,41.47c0-1.96-1.59-3.55-3.55-3.55s-3.55,1.59-3.55,3.55c0,1.96,1.59,3.55,3.55,3.55
		S13.95,43.42,13.95,41.47L13.95,41.47"/>
	<path class="st0" d="M12.92,57.12c0-1.38-1.11-2.49-2.49-2.49s-2.49,1.11-2.49,2.49s1.11,2.49,2.49,2.49S12.92,58.5,12.92,57.12
		L12.92,57.12"/>
	<path class="st0" d="M68.49,25.81c0-1.38-1.11-2.49-2.49-2.49s-2.49,1.11-2.49,2.49S64.62,28.3,66,28.3l0,0
		C67.38,28.3,68.49,27.19,68.49,25.81"/>
	<path class="st0" d="M55.66,17.93c0-1.96-1.59-3.55-3.55-3.55s-3.55,1.59-3.55,3.55s1.59,3.55,3.55,3.55S55.66,19.89,55.66,17.93
		L55.66,17.93"/>
	<path class="st0" d="M27.85,17.93c0-1.96-1.59-3.55-3.55-3.55s-3.55,1.59-3.55,3.55s1.59,3.55,3.55,3.55S27.85,19.89,27.85,17.93
		L27.85,17.93"/>
	<path class="st0" d="M40.7,10.03c0-1.38-1.11-2.49-2.49-2.49s-2.49,1.11-2.49,2.49s1.11,2.49,2.49,2.49S40.7,11.41,40.7,10.03
		L40.7,10.03"/>
	<path class="st0" d="M69.55,41.47c0-1.96-1.59-3.55-3.55-3.55s-3.55,1.59-3.55,3.55c0,1.96,1.59,3.55,3.55,3.55
		S69.55,43.42,69.55,41.47L69.55,41.47"/>
	<path class="st0" d="M68.49,57.12c0-1.38-1.11-2.49-2.49-2.49s-2.49,1.11-2.49,2.49s1.11,2.49,2.49,2.49S68.49,58.5,68.49,57.12
		L68.49,57.12"/>
	<path class="st0" d="M54.6,65c0-1.38-1.11-2.49-2.49-2.49c-1.38,0-2.49,1.11-2.49,2.49c0,1.38,1.11,2.49,2.49,2.49
		S54.6,66.38,54.6,65L54.6,65"/>
	<path class="st0" d="M26.81,65c0-1.38-1.11-2.49-2.49-2.49s-2.49,1.11-2.49,2.49c0,1.38,1.11,2.49,2.49,2.49S26.81,66.38,26.81,65
		L26.81,65"/>
</g>
</svg>
