<svg width="674" height="272" viewBox="0 0 674 272" fill="none" xmlns="http://www.w3.org/2000/svg">
<path d="M323.252 242.193L325.889 243.551L321.328 252.115C320.931 252.877 320.732 253.316 320.732 253.434C320.732 253.805 320.879 253.99 321.172 253.99C321.868 253.99 323.561 252.685 326.25 250.074C326.784 249.56 327.253 249.111 327.656 248.727C328.06 248.336 328.48 247.906 328.916 247.438C329.352 246.969 329.762 246.484 330.146 245.982C330.531 245.481 330.954 244.872 331.416 244.156L334.131 245.436L331.455 250.23C331.221 250.66 331.071 250.943 331.006 251.08C330.941 251.217 330.755 251.549 330.449 252.076C329.544 253.567 329.092 254.54 329.092 254.996C329.092 255.341 329.277 255.514 329.648 255.514C330.065 255.514 330.866 254.967 332.051 253.873L334.092 255.23C332.536 257.926 331.097 260.94 329.775 264.273L327.09 263.033C327.656 261.738 328.444 260.377 329.453 258.951C330.182 257.916 330.557 257.317 330.576 257.154L330.332 256.959C329.876 257.337 329.336 257.672 328.711 257.965C328.092 258.251 327.552 258.395 327.09 258.395C326.471 258.395 326.035 258.219 325.781 257.867C325.534 257.509 325.41 257.138 325.41 256.754C325.41 255.673 325.983 254.299 327.129 252.633C327.233 252.496 327.422 252.203 327.695 251.754L327.451 251.637C326.331 252.828 324.746 254.254 322.695 255.914C320.651 257.568 319.131 258.395 318.135 258.395C317.646 258.395 317.236 258.222 316.904 257.877C316.579 257.532 316.416 257.076 316.416 256.51C316.416 255.572 317.067 253.814 318.369 251.236C320.296 247.486 321.924 244.472 323.252 242.193ZM349.492 243.951L352.178 245.318L347.891 253.434C347.734 253.72 347.656 253.987 347.656 254.234C347.656 254.664 347.855 254.879 348.252 254.879C348.577 254.879 349.18 254.638 350.059 254.156C350.671 253.798 351.335 253.463 352.051 253.15L351.172 255.875C350.371 256.389 349.339 256.939 348.076 257.525C346.813 258.105 345.924 258.395 345.41 258.395C345 258.395 344.626 258.261 344.287 257.994C343.949 257.727 343.737 257.34 343.652 256.832V256.119C343.75 255.266 344.482 253.85 345.85 251.871L345.693 251.676C345.615 251.741 345.042 252.288 343.975 253.316C340.589 256.702 338.083 258.395 336.455 258.395C336.032 258.395 335.632 258.238 335.254 257.926C334.883 257.613 334.697 257.089 334.697 256.354C334.697 255.839 334.873 255.143 335.225 254.264C335.576 253.378 336.211 252.044 337.129 250.26C338.053 248.476 339.469 245.8 341.377 242.232L344.092 243.639L339.414 252.477C339.186 252.945 339.066 253.225 339.053 253.316V253.512C339.079 253.831 339.225 253.99 339.492 253.99C339.824 253.99 340.212 253.824 340.654 253.492C341.104 253.154 341.969 252.389 343.252 251.197C344.912 249.641 346.162 248.404 347.002 247.486C347.842 246.562 348.672 245.383 349.492 243.951ZM369.629 238.951L371.992 240.035L368.711 246.51L368.916 246.637C369.886 245.927 370.677 245.41 371.289 245.084C371.901 244.758 372.575 244.596 373.311 244.596C374.248 244.596 374.974 244.941 375.488 245.631C376.009 246.321 376.27 247.229 376.27 248.355C376.27 249.788 375.775 251.308 374.785 252.916C373.796 254.518 372.451 255.859 370.752 256.939C369.059 258.014 367.22 258.551 365.234 258.551C364.805 258.551 364.482 258.538 364.268 258.512V256.51C365.863 256.484 367.282 255.979 368.525 254.996C369.775 254.007 370.745 252.874 371.436 251.598C372.126 250.315 372.471 249.286 372.471 248.512C372.471 248.225 372.357 248.001 372.129 247.838C371.908 247.675 371.634 247.594 371.309 247.594C370.228 247.594 369.157 248.137 368.096 249.225C367.035 250.305 366.055 251.66 365.156 253.287C364.258 254.908 363.561 256.285 363.066 257.418C362.578 258.551 361.712 260.624 360.469 263.639C359.961 264.934 359.401 266.305 358.789 267.75L355.43 267.115C356.803 264.114 358.698 260.449 361.113 256.119L360.908 255.914C359.072 257.594 357.285 258.434 355.547 258.434C354.661 258.434 353.994 258.131 353.545 257.525C353.096 256.92 352.871 256.103 352.871 255.074C352.871 253.564 353.213 252.128 353.896 250.768C354.587 249.407 355.472 248.219 356.553 247.203C357.64 246.188 358.786 245.4 359.99 244.84C361.195 244.273 362.288 243.99 363.271 243.99C364.437 243.99 365.423 244.472 366.23 245.436L369.629 238.951ZM364.033 249.312L365.273 247.076C365 246.542 364.492 246.275 363.75 246.275C362.884 246.275 361.917 246.679 360.85 247.486C359.788 248.294 358.861 249.29 358.066 250.475C357.272 251.66 356.82 252.753 356.709 253.756V254.518C356.787 255.234 357.122 255.592 357.715 255.592C358.9 255.592 359.993 255.006 360.996 253.834C361.999 252.662 363.011 251.155 364.033 249.312ZM384.58 238.15L387.217 239.43L381.699 250.074L382.1 250.318C384.417 247.962 386.149 246.373 387.295 245.553C388.447 244.726 389.395 244.312 390.137 244.312C390.755 244.312 391.237 244.544 391.582 245.006C391.927 245.462 392.1 245.95 392.1 246.471C392.1 247.122 391.738 248.163 391.016 249.596C390.495 250.637 389.958 251.62 389.404 252.545C388.851 253.469 388.574 254.059 388.574 254.312C388.574 254.658 388.734 254.83 389.053 254.83C389.242 254.83 389.528 254.752 389.912 254.596C390.296 254.439 390.775 254.225 391.348 253.951C391.927 253.671 392.484 253.404 393.018 253.15L392.139 255.875C391.234 256.487 390.231 257.06 389.131 257.594C388.037 258.128 387.171 258.395 386.533 258.395C385.778 258.395 385.241 258.196 384.922 257.799C384.609 257.395 384.453 256.952 384.453 256.471C384.453 255.488 384.987 254.088 386.055 252.271C386.387 251.712 386.715 251.171 387.041 250.65C387.373 250.13 387.594 249.768 387.705 249.566C387.816 249.365 387.881 249.189 387.9 249.039V248.717C387.9 248.398 387.686 248.238 387.256 248.238C386.585 248.238 385.745 248.785 384.736 249.879C383.623 251.051 382.715 252.07 382.012 252.936C381.309 253.801 380.456 255.117 379.453 256.881C378.457 258.645 377.337 261.002 376.094 263.951C375.592 265.149 375.257 265.95 375.088 266.354C374.912 266.764 374.688 267.285 374.414 267.916L371.533 267.193C372.992 263.45 374.45 259.876 375.908 256.471C377.373 253.066 378.678 250.146 379.824 247.711C380.97 245.27 381.859 243.43 382.49 242.193C383.122 240.95 383.818 239.602 384.58 238.15ZM405.527 241.871L406.172 244.195C404.902 244.605 403.717 245.195 402.617 245.963C401.517 246.725 400.573 247.571 399.785 248.502C398.997 249.426 398.392 250.344 397.969 251.256C397.546 252.167 397.334 252.975 397.334 253.678C397.334 255.09 397.92 255.797 399.092 255.797C399.951 255.797 400.804 255.416 401.65 254.654C402.503 253.886 403.203 252.854 403.75 251.559C404.297 250.257 404.57 248.857 404.57 247.359C404.57 247.034 404.544 246.578 404.492 245.992L408.096 244.996C408.2 245.562 408.252 246.188 408.252 246.871C408.252 248.909 407.725 250.816 406.67 252.594C405.622 254.371 404.3 255.784 402.705 256.832C401.11 257.874 399.557 258.395 398.047 258.395C395.143 258.395 393.691 256.956 393.691 254.078C393.691 252.594 394.154 251.08 395.078 249.537C396.009 247.988 397.373 246.539 399.17 245.191C400.967 243.837 403.086 242.73 405.527 241.871ZM408.047 253.15L409.287 252.232C409.749 249.902 410.602 247.688 411.846 245.592C413.089 243.495 414.538 241.66 416.191 240.084C417.852 238.508 419.515 237.288 421.182 236.422C422.855 235.549 424.316 235.113 425.566 235.113C427.116 235.113 427.891 236.008 427.891 237.799C427.891 238.873 427.467 240.022 426.621 241.246C425.775 242.47 424.645 243.71 423.232 244.967C421.82 246.217 420.241 247.441 418.496 248.639C416.758 249.837 414.967 250.982 413.125 252.076C412.858 252.988 412.725 253.707 412.725 254.234C412.725 254.54 412.852 254.872 413.105 255.23C413.359 255.582 413.766 255.758 414.326 255.758C414.99 255.758 415.599 255.507 416.152 255.006C416.712 254.505 417.158 253.792 417.49 252.867C417.829 251.936 418.001 250.885 418.008 249.713L421.406 249.156C421.432 249.339 421.445 249.605 421.445 249.957C421.445 250.999 421.26 252.024 420.889 253.033C420.518 254.042 419.984 254.957 419.287 255.777C418.597 256.591 417.783 257.232 416.846 257.701C415.915 258.163 414.889 258.395 413.77 258.395C411.315 258.395 409.821 257.115 409.287 254.557L407.168 255.875L408.047 253.15ZM414.092 248.834C415.407 248.066 416.891 247.066 418.545 245.836C420.205 244.605 421.624 243.375 422.803 242.145C423.981 240.914 424.57 239.892 424.57 239.078C424.57 238.303 424.316 237.916 423.809 237.916C422.76 237.916 421.253 238.984 419.287 241.119C417.998 242.525 416.999 243.753 416.289 244.801C415.579 245.849 414.847 247.193 414.092 248.834ZM435.488 241.871L436.133 244.195C434.863 244.605 433.678 245.195 432.578 245.963C431.478 246.725 430.534 247.571 429.746 248.502C428.958 249.426 428.353 250.344 427.93 251.256C427.507 252.167 427.295 252.975 427.295 253.678C427.295 255.09 427.881 255.797 429.053 255.797C429.912 255.797 430.765 255.416 431.611 254.654C432.464 253.886 433.164 252.854 433.711 251.559C434.258 250.257 434.531 248.857 434.531 247.359C434.531 247.034 434.505 246.578 434.453 245.992L438.057 244.996C438.161 245.562 438.213 246.188 438.213 246.871C438.213 248.909 437.686 250.816 436.631 252.594C435.583 254.371 434.261 255.784 432.666 256.832C431.071 257.874 429.518 258.395 428.008 258.395C425.104 258.395 423.652 256.956 423.652 254.078C423.652 252.594 424.115 251.08 425.039 249.537C425.97 247.988 427.334 246.539 429.131 245.191C430.928 243.837 433.047 242.73 435.488 241.871ZM453.008 243.951L455.693 245.318L451.406 253.434C451.25 253.72 451.172 253.987 451.172 254.234C451.172 254.664 451.37 254.879 451.768 254.879C452.093 254.879 452.695 254.638 453.574 254.156C454.186 253.798 454.85 253.463 455.566 253.15L454.688 255.875C453.887 256.389 452.855 256.939 451.592 257.525C450.329 258.105 449.44 258.395 448.926 258.395C448.516 258.395 448.141 258.261 447.803 257.994C447.464 257.727 447.253 257.34 447.168 256.832V256.119C447.266 255.266 447.998 253.85 449.365 251.871L449.209 251.676C449.131 251.741 448.558 252.288 447.49 253.316C444.105 256.702 441.598 258.395 439.971 258.395C439.548 258.395 439.147 258.238 438.77 257.926C438.398 257.613 438.213 257.089 438.213 256.354C438.213 255.839 438.389 255.143 438.74 254.264C439.092 253.378 439.727 252.044 440.645 250.26C441.569 248.476 442.985 245.8 444.893 242.232L447.607 243.639L442.93 252.477C442.702 252.945 442.581 253.225 442.568 253.316V253.512C442.594 253.831 442.741 253.99 443.008 253.99C443.34 253.99 443.727 253.824 444.17 253.492C444.619 253.154 445.485 252.389 446.768 251.197C448.428 249.641 449.678 248.404 450.518 247.486C451.357 246.562 452.188 245.383 453.008 243.951ZM447.891 234.791L451.172 234.635C451.172 236.451 451.904 237.359 453.369 237.359C454.6 237.359 456.068 236.331 457.773 234.273L459.365 235.553C458.936 235.995 458.656 236.288 458.525 236.432C456.605 238.567 454.473 239.635 452.129 239.635C449.303 239.635 447.891 238.02 447.891 234.791Z" fill="#1E252C"/>
<path d="M665.981 165.072L654.309 158.167C656.002 155.107 656.848 152.969 656.848 151.751C656.848 151.128 656.507 150.519 655.823 149.925C655.14 149.331 654.205 149.034 653.017 149.034C649.572 149.034 645.518 151.395 640.855 156.117C636.221 160.81 632.227 166.334 628.871 172.69C625.514 179.046 623.836 184.362 623.836 188.639C623.836 190.183 624.46 191.698 625.707 193.183C626.985 194.638 628.856 195.366 631.321 195.366C637.795 195.366 649.349 191.654 665.981 184.228L661.971 196.658C655.378 199.628 649.869 201.915 645.443 203.519C641.048 205.123 637.097 206.296 633.593 207.038C630.088 207.781 626.643 208.152 623.257 208.152C611.347 208.152 605.393 202.375 605.393 190.822C605.393 184.644 607.234 178.303 610.917 171.799C614.629 165.265 619.441 159.295 625.351 153.89C631.261 148.455 637.439 144.133 643.884 140.926C650.329 137.688 656.18 136.07 661.437 136.07C665.684 136.07 668.832 137.406 670.881 140.079C672.96 142.722 674 145.945 674 149.747C674 152.182 673.228 154.796 671.683 157.587C670.169 160.379 668.268 162.874 665.981 165.072Z" fill="#1E252C"/>
<path d="M587.973 140.257L601.116 147.207L585.033 178.571C582.241 184.006 580.845 187.659 580.845 189.53C580.845 191.728 581.632 192.827 583.206 192.827C584.394 192.827 587.171 191.787 591.537 189.708C595.933 187.6 599.482 185.773 602.185 184.229L598.354 196.658C594.641 199.539 590.438 202.182 585.746 204.588C581.083 206.964 577.326 208.152 574.475 208.152C571.445 208.152 568.98 207.261 567.079 205.479C565.208 203.667 564.273 201.633 564.273 199.376C564.273 198.158 564.48 196.821 564.896 195.366C565.342 193.881 565.743 192.708 566.099 191.847C566.456 190.956 566.931 189.827 567.525 188.461C568.089 187.57 568.46 186.827 568.639 186.233L567.881 186.055C567.287 186.471 566.56 187.213 565.698 188.283C562.372 192.352 557.323 196.688 550.551 201.291C543.809 205.865 537.735 208.152 532.33 208.152C528.796 208.152 525.469 206.667 522.351 203.697C519.262 200.697 517.717 196.034 517.717 189.708C517.717 183.234 520.688 175.868 526.628 167.611C532.597 159.355 539.77 152.316 548.145 146.494C556.551 140.643 563.931 137.718 570.287 137.718C577.088 137.718 582.315 139.901 585.969 144.267L587.973 140.257ZM573.004 168.725L582.315 151.217C580.088 148.663 577.356 147.385 574.118 147.385C570.168 147.385 565.149 149.568 559.06 153.934C552.972 158.271 547.626 163.498 543.022 169.616C538.448 175.734 536.161 181.155 536.161 185.877C536.161 191.104 537.928 193.718 541.463 193.718C543.572 193.718 546.883 192.248 551.398 189.307C555.912 186.367 560.263 182.922 564.451 178.972C568.639 175.021 571.49 171.606 573.004 168.725Z" fill="#1E252C"/>
<path d="M469.202 136.07L481.409 143.376L461.183 179.15L462.074 179.506C463.232 178.467 465.846 175.912 469.915 171.843C473.42 168.25 477.162 164.641 481.142 161.018C485.151 157.394 489.799 153.622 495.086 149.702C500.402 145.782 506.684 141.668 513.931 137.362L520.301 149.212C512.817 152.717 504.828 157.082 496.333 162.31C487.869 167.537 482.285 171.873 479.582 175.318L479.805 176.209C481.409 175.853 482.864 175.675 484.171 175.675C487.587 175.675 489.294 177.798 489.294 182.046C489.294 182.64 489.176 183.248 488.938 183.872C488.73 184.496 488.359 185.298 487.824 186.278C487.29 187.258 486.978 187.852 486.889 188.06C486.176 190.02 485.76 191.49 485.641 192.47V193.94C485.641 196.346 486.607 197.549 488.537 197.549C490.2 197.549 492.814 196.703 496.378 195.01C499.972 193.317 503.669 191.327 507.471 189.04C511.273 186.723 513.723 185.119 514.822 184.228L510.812 196.658C500.269 206.014 489.992 210.691 479.983 210.691C476.241 210.691 473.538 209.592 471.875 207.395C470.212 205.167 469.38 202.554 469.38 199.554C469.38 196.465 469.989 193.673 471.207 191.178C471.415 190.703 471.742 190.065 472.187 189.263C472.662 188.461 472.944 187.896 473.034 187.57C473.123 187.213 473.182 186.768 473.212 186.233V185.52C472.974 184.808 472.484 184.451 471.742 184.451C469.93 184.451 466.366 187.317 461.049 193.049C455.733 198.782 451.144 204.306 447.283 209.622L434.186 205.791L469.202 136.07Z" fill="#1E252C"/>
<path d="M374.176 184.986L378.186 182.402C379.968 176.878 382.834 171.457 386.784 166.141C390.764 160.825 395.397 156.013 400.684 151.707C405.97 147.4 411.48 144 417.212 141.505C422.974 138.98 428.335 137.718 433.295 137.718C438.344 137.718 442.041 138.891 444.388 141.237C446.734 143.584 447.907 146.301 447.907 149.39C447.907 155.301 444.343 161.642 437.215 168.413C430.117 175.185 415.979 181.199 394.803 186.456C394.566 187.406 394.447 188.134 394.447 188.639C394.447 190.926 395.427 192.753 397.387 194.119C399.347 195.455 402.02 196.123 405.406 196.123C407.96 196.123 411.123 195.604 414.895 194.564C418.667 193.495 422.469 192.099 426.3 190.376C430.161 188.654 433.77 186.798 437.126 184.808L433.116 196.658C427.859 200.044 421.741 202.806 414.762 204.944C407.782 207.083 401.619 208.152 396.273 208.152C392.709 208.152 389.472 207.439 386.561 206.014C383.68 204.558 381.438 202.628 379.834 200.222C378.26 197.816 377.473 195.232 377.473 192.47L370.167 197.014L374.176 184.986ZM398.278 175.853C413.841 171.754 424.295 165.191 429.641 156.162C430.384 154.885 430.755 153.726 430.755 152.687C430.755 150.489 429.716 149.39 427.637 149.39C424.399 149.39 420.761 150.92 416.722 153.979C412.712 157.008 408.985 160.647 405.54 164.894C402.095 169.111 399.674 172.764 398.278 175.853Z" fill="#1E252C"/>
<path d="M409.772 93.9252L405.228 109.785C395.872 111.359 389.041 112.74 384.735 113.928C380.458 115.087 377.726 116.171 376.538 117.18C375.35 118.161 374.756 119.349 374.756 120.744C374.756 124.279 375.424 128.66 376.76 133.887C377.592 137.807 378.008 142.01 378.008 146.495C378.008 154.335 376.671 161.983 373.998 169.438C371.325 176.893 367.717 183.531 363.172 189.352C358.628 195.143 353.46 199.732 347.669 203.118C341.907 206.474 336.086 208.152 330.205 208.152C326.166 208.152 322.528 207.306 319.29 205.613C316.083 203.92 313.573 201.529 311.761 198.44C309.95 195.322 309.044 191.683 309.044 187.525C309.044 182.773 310.187 177.947 312.474 173.047C314.761 168.146 318.043 163.498 322.32 159.102C326.626 154.677 331.675 150.86 337.467 147.653C343.288 144.445 349.57 142.099 356.312 140.614L360.678 149.569C352.629 152.925 345.976 156.875 340.719 161.419C335.492 165.963 331.735 170.418 329.448 174.784C327.161 179.12 326.017 182.877 326.017 186.055C326.017 188.728 326.641 190.956 327.889 192.738C329.166 194.49 330.799 195.366 332.789 195.366C336.442 195.366 340.571 193.644 345.174 190.198C349.778 186.753 353.906 182.135 357.559 176.343C361.212 170.552 363.588 164.493 364.687 158.167C365.073 155.494 365.266 152.806 365.266 150.103C365.266 146.955 365.073 143.985 364.687 141.193C364.123 137.243 362.608 131.214 360.143 123.106C358.806 119.215 358.138 116.423 358.138 114.73C358.138 112.562 358.599 110.735 359.519 109.25C360.47 107.765 362.593 106.236 365.89 104.662C369.187 103.088 374.34 101.424 381.349 99.6722C388.388 97.9198 397.862 96.0042 409.772 93.9252Z" fill="#1E252C"/>
<path d="M293.629 142.262L305.881 148.499L286.323 185.521C285.61 186.827 285.254 188.045 285.254 189.174C285.254 191.134 286.16 192.114 287.971 192.114C289.457 192.114 292.204 191.015 296.213 188.817C299.005 187.184 302.035 185.654 305.302 184.229L301.292 196.658C297.639 199.004 292.931 201.514 287.17 204.187C281.408 206.83 277.354 208.152 275.007 208.152C273.136 208.152 271.428 207.543 269.884 206.326C268.34 205.108 267.374 203.341 266.988 201.024V197.772C267.434 193.881 270.775 187.421 277.012 178.392L276.299 177.501C275.943 177.798 273.329 180.293 268.458 184.986C253.014 200.43 241.58 208.152 234.155 208.152C232.224 208.152 230.398 207.439 228.675 206.014C226.982 204.588 226.136 202.197 226.136 198.841C226.136 196.495 226.938 193.317 228.541 189.307C230.145 185.268 233.041 179.18 237.229 171.042C241.446 162.904 247.906 150.697 256.608 134.421L268.993 140.837L247.653 181.155C246.614 183.293 246.064 184.57 246.005 184.986V185.877C246.124 187.332 246.792 188.06 248.01 188.06C249.525 188.06 251.292 187.303 253.311 185.788C255.361 184.243 259.311 180.754 265.162 175.318C272.735 168.22 278.438 162.577 282.269 158.389C286.1 154.172 289.887 148.796 293.629 142.262ZM270.285 100.474L285.254 99.7612C285.254 108.048 288.595 112.191 295.278 112.191C300.891 112.191 307.588 107.498 315.37 98.1128L322.632 103.949C320.671 105.968 319.394 107.305 318.8 107.958C310.039 117.7 300.312 122.571 289.62 122.571C276.73 122.571 270.285 115.205 270.285 100.474Z" fill="#1E252C"/>
<path d="M211.256 140.257L224.398 147.207L208.316 178.571C205.524 184.006 204.128 187.659 204.128 189.53C204.128 191.728 204.915 192.827 206.489 192.827C207.677 192.827 210.454 191.787 214.82 189.708C219.216 187.6 222.765 185.773 225.467 184.229L221.636 196.658C217.924 199.539 213.721 202.182 209.028 204.588C204.365 206.964 200.608 208.152 197.757 208.152C194.728 208.152 192.263 207.261 190.362 205.479C188.491 203.667 187.555 201.633 187.555 199.376C187.555 198.158 187.763 196.821 188.179 195.366C188.624 193.881 189.025 192.708 189.382 191.847C189.738 190.956 190.213 189.827 190.807 188.461C191.372 187.57 191.743 186.827 191.921 186.233L191.164 186.055C190.57 186.471 189.842 187.213 188.981 188.283C185.654 192.352 180.605 196.688 173.834 201.291C167.092 205.865 161.018 208.152 155.613 208.152C152.078 208.152 148.752 206.667 145.633 203.697C142.544 200.697 141 196.034 141 189.708C141 183.234 143.97 175.868 149.91 167.611C155.88 159.355 163.052 152.316 171.428 146.494C179.833 140.643 187.214 137.718 193.569 137.718C200.371 137.718 205.598 139.901 209.251 144.267L211.256 140.257ZM196.287 168.725L205.598 151.217C203.37 148.663 200.638 147.385 197.401 147.385C193.451 147.385 188.431 149.568 182.343 153.934C176.254 158.271 170.908 163.498 166.305 169.616C161.731 175.734 159.444 181.155 159.444 185.877C159.444 191.104 161.211 193.718 164.745 193.718C166.854 193.718 170.166 192.248 174.68 189.307C179.194 186.367 183.546 182.922 187.733 178.972C191.921 175.021 194.772 171.606 196.287 168.725Z" fill="#1E252C"/>
<path d="M52.6536 50.1601C49.8002 130.564 39.5047 243.758 38.3269 259.152C37.3589 271.805 53.384 274.293 53.384 270.164C58.8071 204.725 68.1834 86.3997 70.7539 36.7962C64.1125 40.786 58.1148 45.388 52.6536 50.1601Z" fill="#1E252C"/>
<path d="M71.1789 14.1463C70.8398 13.1232 70.2993 12.3509 69.6093 11.7866C64.0257 14.2456 58.5878 17.0047 53.3594 19.9803C53.2836 29.246 53.0351 39.41 52.6536 50.1601C58.1148 45.388 64.1125 40.786 70.7539 36.7962C71.4275 23.7976 71.6337 15.5182 71.1789 14.1463Z" fill="#1E252C"/>
<path d="M0 67.8275L19.1636 82.9683C27.9715 76.0092 38.5147 62.5149 52.6536 50.1601C53.0351 39.41 53.2836 29.246 53.3594 19.9803C28.6732 34.0299 8.65488 52.908 0 67.8275Z" fill="#1E252C"/>
<path d="M110.875 172.437C212.168 135.273 209.841 29.4249 151.94 5.88781C125.727 -4.76774 96.0355 0.148627 69.6093 11.7866C70.2993 12.3509 70.8398 13.1232 71.1789 14.1463C71.6337 15.5182 71.4275 23.7976 70.7539 36.7962C84.3275 28.6419 107.833 19.9803 120.457 23.7815C208.061 50.1601 149.202 147.661 93.0801 154.543L110.875 172.437Z" fill="#1E252C"/>
<path d="M53.3594 19.9803C58.5878 17.0047 64.0257 14.2456 69.6093 11.7866C65.8437 8.7067 57.6258 11.8198 53.384 14.1463C53.384 16.0476 53.3757 17.9933 53.3594 19.9803Z" fill="#1E252C"/>
<path d="M495 243.395H674" stroke="#1E252C"/>
<path d="M495 251.395H674" stroke="#1E252C"/>
<path d="M495 259.395H674" stroke="#1E252C"/>
<path d="M96 243.395H275" stroke="#1E252C"/>
<path d="M96 251.395H275" stroke="#1E252C"/>
<path d="M96 259.395H275" stroke="#1E252C"/>
</svg>
